<svg width="129" height="53" viewBox="0 0 129 53" fill="none" xmlns="http://www.w3.org/2000/svg">
<g clip-path="url(#clip0_70_1820)">
<path d="M11.5392 0.210266V10.2814H9.08097V3.68237L7.07916 6.33463H5.44999L3.44819 3.68237V10.2814H0.98999V0.210266H3.52907L6.25302 3.88948L9.00009 0.210266H11.5392Z" fill="white"/>
<path d="M18.9688 2.2642C18.5929 2.25938 18.2202 2.33377 17.8752 2.4825C17.5302 2.63123 17.2207 2.85093 16.967 3.12719C16.433 3.69418 16.1436 4.44712 16.1611 5.22426C16.146 6.007 16.4347 6.76537 16.967 7.34146C17.2241 7.61375 17.5345 7.83073 17.879 7.97905C18.2235 8.12737 18.5949 8.20389 18.9702 8.20389C19.3456 8.20389 19.7169 8.12737 20.0614 7.97905C20.406 7.83073 20.7163 7.61375 20.9735 7.34146C21.5037 6.76429 21.7912 6.0064 21.7765 5.22426C21.7938 4.44768 21.5056 3.69513 20.9735 3.12719C20.7211 2.84851 20.4114 2.6272 20.0655 2.47829C19.7196 2.32938 19.3455 2.25636 18.9688 2.2642ZM24.2751 5.22426C24.2794 5.91734 24.1452 6.60435 23.8805 7.24534C23.6158 7.88634 23.2257 8.46854 22.7331 8.95809C22.2404 9.44765 21.6549 9.83479 21.0107 10.097C20.3664 10.3593 19.6763 10.4914 18.9803 10.4856C18.2849 10.493 17.595 10.3618 16.9511 10.0999C16.3073 9.83798 15.7225 9.45057 15.2311 8.96042C14.7398 8.47027 14.3517 7.88727 14.0897 7.24567C13.8278 6.60407 13.6972 5.91681 13.7057 5.22426C13.6926 4.53605 13.8217 3.85251 14.0851 3.21611C14.3485 2.57971 14.7405 2.00405 15.2367 1.5249C15.7277 1.0328 16.3133 0.644396 16.9586 0.382924C17.6038 0.121452 18.2954 -0.00770837 18.9919 0.00316666C19.6891 -0.0125823 20.3821 0.11435 21.028 0.376103C21.6739 0.637857 22.259 1.02886 22.7471 1.5249C23.2482 2.00135 23.6448 2.57606 23.9118 3.21277C24.1788 3.84948 24.3104 4.53437 24.2983 5.22426" fill="white"/>
<path d="M34.0182 7.44504V9.74635C33.0984 10.2568 32.058 10.5121 31.0054 10.4856C30.3026 10.5032 29.6037 10.3775 28.9515 10.1163C28.2993 9.85508 27.7075 9.46392 27.2126 8.96678C26.2422 7.96799 25.7013 6.63156 25.7051 5.24176C25.7089 3.85196 26.257 2.51847 27.2328 1.52492C27.7277 1.02585 28.3201 0.633284 28.9735 0.371526C29.6269 0.109767 30.3273 -0.0156027 31.0313 0.00318053C31.5255 0.000901084 32.0178 0.0627908 32.4959 0.187285C32.8531 0.269974 33.1993 0.394536 33.5271 0.558369L33.8593 0.742474V3.02365C33.0517 2.53248 32.1221 2.27638 31.1758 2.28435C30.7803 2.27035 30.3863 2.34003 30.0198 2.48879C29.6534 2.63754 29.3227 2.862 29.0498 3.14734C28.7758 3.42348 28.5597 3.75106 28.4139 4.11105C28.2681 4.47104 28.1956 4.85628 28.2005 5.24441C28.1931 6.03388 28.4982 6.79448 29.0498 7.36162C29.3261 7.64807 29.6603 7.87306 30.0302 8.02179C30.4001 8.17052 30.7974 8.23964 31.196 8.22461C31.6535 8.2213 32.1084 8.15548 32.5479 8.02899C32.9257 7.93346 33.2948 7.80645 33.6513 7.64928L34.0182 7.44504Z" fill="white"/>
<path d="M38.7872 0.210266V3.99304L41.8838 0.210266H45.0815L40.9537 4.93658L45.4339 10.2814H42.2333L38.7872 6.0671V10.2814H36.2886V0.210266H38.7872Z" fill="white"/>
<path d="M51.1101 2.2642C50.7341 2.25882 50.3613 2.33297 50.0162 2.48173C49.6711 2.6305 49.3617 2.85049 49.1083 3.12719C48.5743 3.69418 48.285 4.44711 48.3024 5.22425C48.2873 6.00699 48.576 6.76536 49.1083 7.34146C49.365 7.61404 49.675 7.83131 50.0193 7.97984C50.3637 8.12837 50.7349 8.205 51.1101 8.205C51.4853 8.205 51.8566 8.12837 52.2009 7.97984C52.5452 7.83131 52.8553 7.61404 53.1119 7.34146C53.6442 6.76536 53.9329 6.00699 53.9178 5.22425C53.9353 4.44711 53.6459 3.69418 53.1119 3.12719C52.8602 2.84843 52.5511 2.62703 52.2056 2.4781C51.8601 2.32916 51.4865 2.2562 51.1101 2.2642ZM56.4165 5.22425C56.4199 5.91712 56.2853 6.60378 56.0203 7.24443C55.7552 7.88507 55.3652 8.46696 54.8727 8.95636C54.3802 9.44576 53.795 9.83294 53.1511 10.0955C52.5072 10.358 51.8174 10.4906 51.1217 10.4856C50.4255 10.4957 49.7343 10.3665 49.0892 10.1055C48.4441 9.8446 47.8582 9.45729 47.3663 8.96658C46.8743 8.47587 46.4864 7.89176 46.2254 7.24891C45.9644 6.60606 45.8358 5.91756 45.8471 5.22425C45.8341 4.53633 45.963 3.85306 46.2258 3.21675C46.4887 2.58043 46.8798 2.0046 47.3751 1.5249C47.8668 1.03373 48.4526 0.645936 49.0977 0.38453C49.7427 0.123124 50.434 -0.00656433 51.1303 0.00316137C51.8276 -0.0129305 52.5207 0.113842 53.1666 0.375615C53.8126 0.637388 54.3977 1.02858 54.8855 1.5249C55.3876 2.00078 55.785 2.57531 56.0525 3.21211C56.32 3.8489 56.4518 4.53409 56.4396 5.22425" fill="white"/>
<path d="M64.7645 7.15733C64.7645 6.53982 64.234 6.23106 63.1729 6.23106H61.0094V8.02032H63.3838C63.7367 8.03814 64.0875 7.95531 64.3948 7.78156C64.5075 7.72051 64.6017 7.6303 64.6672 7.52044C64.7328 7.41058 64.7674 7.28514 64.7674 7.15733M61.0122 4.09372H63.0978C63.4469 4.11328 63.7941 4.03133 64.0973 3.85783C64.2057 3.79718 64.2962 3.70914 64.3596 3.60258C64.423 3.49602 64.457 3.37471 64.4583 3.25086C64.462 3.12977 64.4335 3.00985 64.3757 2.90327C64.3178 2.79668 64.2328 2.7072 64.129 2.64389C63.8607 2.48776 63.5526 2.41279 63.2422 2.42814H61.0094L61.0122 4.09372ZM66.957 3.10703C66.9592 3.44171 66.884 3.77241 66.7374 4.07358C66.632 4.31817 66.4811 4.54071 66.2926 4.72945L66.0615 4.93657C66.1832 5.00914 66.299 5.09088 66.4082 5.18109C66.6295 5.40615 66.8155 5.66313 66.9599 5.94339C67.1941 6.34919 67.3148 6.81011 67.3094 7.27815C67.3191 7.69664 67.2307 8.11162 67.0512 8.49013C66.8716 8.86864 66.606 9.20026 66.2753 9.45864C65.5267 10.032 64.5987 10.3234 63.6553 10.2814H58.5598V0.213135H63.0516C64.2648 0.213135 65.2171 0.459569 65.9084 0.952432C66.2488 1.19731 66.522 1.5235 66.7027 1.90101C66.8834 2.27852 66.9659 2.69522 66.9425 3.11278" fill="white"/>
<path d="M77.1594 7.44503V9.74634C76.2398 10.257 75.1993 10.5124 74.1466 10.4856C73.4429 10.5038 72.743 10.3784 72.0897 10.1172C71.4365 9.85598 70.8438 9.46449 70.3481 8.96678C69.3777 7.96799 68.8368 6.63156 68.8406 5.24176C68.8444 3.85196 69.3925 2.51846 70.3683 1.52491C70.8635 1.02626 71.456 0.63397 72.1093 0.372241C72.7626 0.110513 73.4629 -0.0150936 74.1668 0.0031763C74.6619 0.00107104 75.1552 0.0629559 75.6343 0.187281C75.9914 0.270483 76.3375 0.395024 76.6655 0.558365L76.9948 0.74247V3.02364C76.1872 2.53248 75.2576 2.27638 74.3113 2.28435C73.9159 2.2709 73.522 2.34083 73.1556 2.48955C72.7893 2.63828 72.4586 2.86244 72.1853 3.14734C71.9122 3.424 71.6969 3.75173 71.5516 4.11164C71.4064 4.47156 71.3341 4.85654 71.3389 5.24441C71.3317 6.03329 71.6356 6.7935 72.1853 7.36161C72.4618 7.64792 72.7959 7.87281 73.1658 8.02153C73.5356 8.17026 73.9329 8.23946 74.3315 8.2246C74.789 8.2213 75.2438 8.15548 75.6834 8.02899C76.0621 7.93338 76.4322 7.80637 76.7897 7.64928L77.1594 7.44503Z" fill="white"/>
<path d="M81.9286 0.210266V3.99304L85.0252 0.210266H88.2258L84.098 4.93658L88.5753 10.2814H85.3776L81.9286 6.0671V10.2814H79.4329V0.210266H81.9286Z" fill="white"/>
<path d="M90.2275 10.2814V0.210266H92.7262V6.39791L93.0526 5.61547L96.5854 0.210266H99.2053V10.2814H96.7096V4.07359L96.3774 4.87617L92.8302 10.2814H90.2275Z" fill="white"/>
<path d="M106.534 2.14048C105.904 2.12864 105.294 2.36068 104.833 2.78773C104.351 3.2296 104.016 3.8063 103.871 4.44179H108.848C108.855 4.12911 108.795 3.81849 108.67 3.53142C108.545 3.24435 108.36 2.98766 108.126 2.7791C107.697 2.37068 107.127 2.14203 106.534 2.14048ZM110.982 6.23106H103.934C104.126 6.82121 104.497 7.33712 104.997 7.70677C105.52 8.08658 106.155 8.28285 106.803 8.26484C107.737 8.24972 108.658 8.04003 109.506 7.64924L109.899 7.445V9.78083C108.938 10.2788 107.865 10.5215 106.782 10.4856C105.171 10.4856 103.863 9.97165 102.86 8.94373C102.371 8.46414 101.986 7.89072 101.726 7.25827C101.467 6.62581 101.34 5.94751 101.352 5.26451C101.335 4.5737 101.459 3.88666 101.714 3.24424C101.97 2.60181 102.352 2.01711 102.839 1.52488C103.298 1.03618 103.855 0.64838 104.473 0.386329C105.092 0.124279 105.758 -0.00623798 106.43 0.00314368C107.048 -0.0165987 107.664 0.0898468 108.239 0.315932C108.814 0.542018 109.337 0.882956 109.775 1.31776C110.223 1.73939 110.576 2.25062 110.81 2.81782C111.045 3.38502 111.157 3.99534 111.138 4.60864C111.137 4.86236 111.123 5.11584 111.095 5.36807C111.069 5.64135 111.043 5.85422 111.014 6.00381L110.982 6.23106Z" fill="white"/>
<path d="M12.7986 18.4453V28.5164H0.98999V18.4453H3.48863V26.2956H5.65508V18.4453H8.09018V26.2956H10.3V18.4453H12.7986Z" fill="white"/>
<path d="M18.1656 18.4453V22.2281L21.2622 18.4453H24.4599L20.3321 23.1716L24.8123 28.5164H21.6117L18.1656 24.3021V28.5164H15.667V18.4453H18.1656Z" fill="white"/>
<path d="M30.4885 20.4992C30.1125 20.4938 29.7397 20.568 29.3946 20.7167C29.0495 20.8655 28.7401 21.0855 28.4867 21.3622C27.9527 21.9292 27.6634 22.6821 27.6808 23.4593C27.6657 24.242 27.9544 25.0004 28.4867 25.5765C28.7434 25.849 29.0534 26.0663 29.3977 26.2148C29.742 26.3634 30.1133 26.44 30.4885 26.44C30.8637 26.44 31.235 26.3634 31.5793 26.2148C31.9236 26.0663 32.2336 25.849 32.4903 25.5765C33.0226 25.0004 33.3113 24.242 33.2962 23.4593C33.3136 22.6821 33.0243 21.9292 32.4903 21.3622C32.2383 21.0837 31.9292 20.8625 31.5838 20.7136C31.2384 20.5647 30.8648 20.4916 30.4885 20.4992ZM35.7949 23.4593C35.7976 24.1522 35.6623 24.8387 35.3968 25.4792C35.1313 26.1197 34.741 26.7014 34.2483 27.1907C33.7556 27.68 33.1705 28.0671 32.5266 28.3297C31.8827 28.5923 31.1929 28.7252 30.4972 28.7206C29.802 28.7276 29.1124 28.5961 28.4689 28.334C27.8254 28.072 27.2409 27.6845 26.7499 27.1944C26.2588 26.7043 25.871 26.1214 25.6092 25.48C25.3474 24.8386 25.217 24.1516 25.2255 23.4593C25.2128 22.7709 25.3418 22.0873 25.6046 21.4506C25.8674 20.8138 26.2584 20.2375 26.7535 19.757C27.2455 19.2664 27.8313 18.8791 28.4764 18.6182C29.1215 18.3573 29.8126 18.2281 30.5087 18.2382C31.2057 18.2222 31.8985 18.3488 32.5444 18.61C33.1903 18.8713 33.7755 19.2616 34.2639 19.757C34.7658 20.2337 35.163 20.8087 35.4305 21.446C35.698 22.0832 35.8299 22.7687 35.818 23.4593" fill="white"/>
<path d="M38.4984 25.7836L39.2206 18.4453H46.3843V28.5164H43.929V20.6632H41.3668L40.7891 26.4596L38.7873 29.1751L36.9097 27.9411L38.4984 25.7836Z" fill="white"/>
<path d="M58.5627 18.4395H61.0585V28.5077H58.5627V18.4395ZM51.7283 24.1928V26.2899H53.6492C53.9769 26.3002 54.2968 26.1896 54.5475 25.9792C54.6618 25.8863 54.7535 25.7691 54.816 25.6361C54.8785 25.5032 54.9102 25.3579 54.9086 25.2111C54.9045 25.0727 54.8688 24.9371 54.8043 24.8145C54.7397 24.6919 54.648 24.5855 54.536 24.5035C54.288 24.2962 53.9728 24.1858 53.6492 24.1928H51.7283ZM49.2729 28.5077V18.4395H51.7283V21.9778H53.6145C54.5983 21.9474 55.5605 22.2689 56.3269 22.8839C56.6729 23.1587 56.9504 23.5093 57.1378 23.9085C57.3252 24.3077 57.4174 24.7447 57.4073 25.1852C57.4128 25.6434 57.3202 26.0974 57.1357 26.5171C56.9605 26.9185 56.6993 27.2769 56.3702 27.5671C56.0226 27.8731 55.6184 28.1086 55.1801 28.2604C54.685 28.4301 54.1642 28.5138 53.6405 28.5077H49.2729Z" fill="white"/>
<path d="M0.98999 46.7514V36.6803H3.48863V42.865L3.81793 42.0855L7.3478 36.6803H9.97066V46.7514H7.47201V40.5436L7.14271 41.3433L3.59262 46.7514H0.98999Z" fill="white"/>
<path d="M20.4361 43.9121V46.2134C19.5147 46.7225 18.4737 46.9777 17.4204 46.9527C16.719 46.9694 16.0216 46.8433 15.371 46.5821C14.7203 46.3209 14.13 45.9302 13.6363 45.4339C12.6664 44.4378 12.124 43.1048 12.124 41.7173C12.124 40.3298 12.6664 38.9968 13.6363 38.0006C14.1314 37.5029 14.7235 37.1113 15.3763 36.8501C16.0291 36.5889 16.7287 36.4635 17.4319 36.4818C17.927 36.4793 18.4203 36.5412 18.8993 36.6659C19.2564 36.7479 19.6025 36.8715 19.9306 37.0341L20.2599 37.2211V39.5023C19.4532 39.0086 18.5231 38.7514 17.5764 38.7601C17.1809 38.7461 16.7869 38.8158 16.4204 38.9645C16.0539 39.1133 15.7233 39.3377 15.4503 39.6231C15.1774 39.8992 14.9621 40.2264 14.8168 40.5859C14.6716 40.9453 14.5992 41.3298 14.604 41.7173C14.5963 42.5071 14.9002 43.2684 15.4503 43.8373C15.7278 44.1231 16.0625 44.3477 16.4328 44.4963C16.803 44.645 17.2005 44.7145 17.5995 44.7003C18.0568 44.6952 18.5114 44.6294 18.9513 44.5047C19.3296 44.4093 19.6988 44.2813 20.0548 44.1221L20.4361 43.9121Z" fill="white"/>
<path d="M25.2052 36.6803V40.4602L28.3018 36.6803H31.4995L27.3716 41.4066L31.8519 46.7514H28.6513L25.2052 42.5371V46.7514H22.7065V36.6803H25.2052Z" fill="white"/>
<path d="M40.275 36.6803H42.9556L38.8913 48.8686L36.4967 52.1364L34.7202 50.8017L36.5573 48.066L37.0311 46.7514H35.9998L33.2123 39.1254L32.0569 38.015L33.4203 36.3293L35.2372 37.6842L37.6723 44.4903H37.7561L40.275 36.6803Z" fill="white"/>
<path d="M52.1008 43.9121V46.2134C51.1797 46.7229 50.1386 46.9782 49.0851 46.9527C48.3816 46.9711 47.6818 46.8455 47.0289 46.5838C46.376 46.3221 45.784 45.9297 45.2895 45.431C44.3191 44.4322 43.7782 43.0958 43.782 41.706C43.7858 40.3162 44.3339 38.9827 45.3097 37.9891C45.8051 37.491 46.3978 37.0992 47.0511 36.838C47.7044 36.5768 48.4045 36.4516 49.1083 36.4703C49.6024 36.468 50.0947 36.5299 50.5728 36.6544C50.9298 36.7363 51.276 36.8599 51.604 37.0226L51.9362 37.2096V39.4907C51.1294 38.9974 50.1994 38.7402 49.2527 38.7486C48.8568 38.7347 48.4624 38.8044 48.0955 38.9532C47.7286 39.1019 47.3974 39.3263 47.1238 39.6116C46.85 39.8883 46.6342 40.2164 46.4889 40.5769C46.3436 40.9374 46.2717 41.3231 46.2774 41.7115C46.2687 42.501 46.5716 43.2623 47.1209 43.8316C47.3984 44.1174 47.7331 44.3419 48.1033 44.4906C48.4736 44.6392 48.8711 44.7087 49.27 44.6946C49.7274 44.6894 50.182 44.6236 50.6219 44.499C51.0003 44.4039 51.3695 44.2759 51.7253 44.1164L52.1008 43.9121Z" fill="white"/>
<path d="M61.9684 43.9121V46.2134C61.0472 46.7229 60.0061 46.9782 58.9526 46.9527C58.2487 46.971 57.5484 46.8454 56.8951 46.5837C56.2418 46.3219 55.6493 45.9296 55.1541 45.431C54.1848 44.4315 53.6449 43.095 53.6492 41.7054C53.6535 40.3158 54.2017 38.9827 55.1772 37.9891C55.6742 37.4901 56.2688 37.098 56.9242 36.8373C57.5796 36.5765 58.2818 36.4525 58.9873 36.4732C59.4814 36.4711 59.9737 36.533 60.4518 36.6573C60.8089 36.7392 61.155 36.8628 61.4831 37.0255L61.8153 37.2125V39.4936C61.0082 39.0007 60.0784 38.7436 59.1317 38.7514C58.7358 38.7372 58.3413 38.8068 57.9743 38.9555C57.6074 39.1043 57.2763 39.3289 57.0028 39.6144C56.7303 39.8907 56.5154 40.218 56.3707 40.5775C56.2259 40.9369 56.1541 41.3214 56.1594 41.7086C56.1506 42.4981 56.4535 43.2594 57.0028 43.8287C57.2803 44.1145 57.615 44.339 57.9853 44.4877C58.3555 44.6364 58.753 44.7059 59.152 44.6917C59.6093 44.6866 60.0639 44.6208 60.5038 44.4961C60.8821 44.4006 61.2513 44.2726 61.6073 44.1135L61.9684 43.9121Z" fill="white"/>
<path d="M71.5874 38.8982H68.615V46.7514H66.1597V38.8982H63.2075V36.6803H71.5874V38.8982Z" fill="white"/>
<path d="M79.638 43.6245C79.638 43.0089 79.1084 42.7011 78.0493 42.7011H75.8828V44.4875H78.2544C78.6071 44.5065 78.9579 44.4246 79.2654 44.2516C79.3781 44.1898 79.4722 44.099 79.5377 43.9887C79.6033 43.8784 79.6379 43.7526 79.638 43.6245ZM75.8828 40.5608H77.9655C78.3155 40.5805 78.6637 40.4985 78.9678 40.325C79.0761 40.2641 79.1664 40.176 79.2297 40.0695C79.2931 39.963 79.3273 39.8418 79.3289 39.718C79.3324 39.597 79.3034 39.4773 79.245 39.3711C79.1867 39.2649 79.101 39.1762 78.9967 39.1139C78.7286 38.9573 78.4203 38.8823 78.1099 38.8982H75.8828V40.5608ZM81.8247 39.577C81.8265 39.9104 81.7524 40.2399 81.608 40.5407C81.5009 40.7859 81.3491 41.0093 81.1603 41.1995L80.9321 41.4037C81.0525 41.4791 81.1683 41.5617 81.2787 41.6511C81.5009 41.8743 81.687 42.1305 81.8304 42.4105C82.0638 42.8176 82.1835 43.2795 82.1771 43.7482C82.1873 44.166 82.0994 44.5805 81.9204 44.9586C81.7414 45.3366 81.4761 45.6678 81.1458 45.9258C80.3963 46.4993 79.4673 46.7907 78.523 46.7485H73.4448V36.6803H77.9366C79.1498 36.6803 80.1011 36.9267 80.7905 37.4196C81.131 37.6644 81.4041 37.9906 81.5848 38.3681C81.7655 38.7456 81.848 39.1624 81.8247 39.5799" fill="white"/>
<path d="M124.631 0.316701C124.053 0.00890067 123.016 0.3167 122.462 1.26887C121.907 2.22103 121.396 3.62771 122.384 6.30586C122.672 7.10844 123.487 8.92647 123.678 10.802C123.536 12.2879 123.308 13.7642 122.993 15.2234C122.891 15.0246 122.808 14.8165 122.745 14.6021C122.297 13.0947 121.346 11.8923 119.856 10.9286C118.877 10.2986 117.99 10.3533 117.415 11.0811C117.005 11.6046 116.806 12.4446 116.86 13.4457C117.011 16.1037 119.53 17.8527 120.298 18.336C120.85 18.6692 121.349 19.0822 121.78 19.5614C120.855 22.2124 119.612 24.7422 118.077 27.0953C117.941 25.5563 116.964 23.4823 115.676 22.7573C115.39 22.5865 115.064 22.4929 114.73 22.4858C114.396 22.4787 114.066 22.5584 113.773 22.7171C113.475 22.8635 113.213 23.0726 113.004 23.3298C111.693 24.9954 112.626 28.2373 113.518 29.5865C113.939 30.2188 114.273 30.9049 114.509 31.626C112.626 33.652 110.505 35.4455 108.192 36.9679C108.371 36.1308 108.481 34.9543 108.027 33.9072C107.519 32.7047 106.785 31.9827 105.962 31.8734C104.939 31.7382 103.908 32.5839 103.296 34.0654C102.657 35.6073 103.33 38.3804 103.694 39.5051C100.086 41.2287 96.2437 42.4187 92.29 43.0376C91.8192 43.1182 91.4408 43.5899 91.591 43.9006C91.6517 44.0329 91.8423 44.4414 92.5905 44.3292C95.2428 43.9282 97.8532 43.2889 100.39 42.4191C101.051 43.4634 102.287 45.1778 103.752 46.038C105.341 46.97 107.796 47.1196 108.819 45.8395C108.993 45.6076 109.117 45.3429 109.185 45.0616C109.253 44.7802 109.263 44.488 109.214 44.2027C108.995 42.4422 106.433 41.4756 104.055 40.9578C106.913 39.6679 109.597 38.0249 112.042 36.0675C113.114 36.9766 115.032 38.4753 116.803 39.2059C118.669 39.974 121.225 39.9683 122.291 38.6306C122.493 38.3624 122.633 38.0535 122.703 37.7255C122.772 37.3976 122.769 37.0585 122.693 36.732C122.236 34.1114 118.539 33.6742 117.146 33.5102C116.999 33.4929 116.881 33.4786 116.8 33.4642C116.206 33.3994 115.609 33.3744 115.012 33.3894C115.494 32.9004 115.974 32.3826 116.456 31.8302L116.577 31.7296L116.667 31.5857C117.926 30.1187 119.059 28.5493 120.055 26.8939C120.827 27.2161 123.109 28.0216 125.197 27.383C126.239 27.0805 127.165 26.4707 127.852 25.634C128.545 24.7566 128.779 23.767 128.481 22.9903C128.236 22.3489 127.647 21.9174 126.82 21.7706C125.157 21.483 123.614 21.6412 122.401 22.2367C123.787 18.9113 124.755 14.5071 125.128 10.8337C126.517 8.55539 126.93 6.97036 126.898 4.79275C126.867 2.54897 125.783 0.932299 124.64 0.328205" fill="white"/>
</g>
<defs>
<clipPath id="clip0_70_1820">
<rect width="127.61" height="52.1333" fill="white" transform="translate(0.98999 0.00317383)"/>
</clipPath>
</defs>
</svg>
