<svg width="228" height="94" viewBox="0 0 228 94" fill="none" xmlns="http://www.w3.org/2000/svg">
<g clip-path="url(#clip0_69_1722)">
<path d="M18.8482 0.869476V18.8352H14.4561V7.06332L10.8795 11.7947H7.96867L4.39206 7.06332V18.8352H0V0.869476H4.53657L9.40344 7.43279L14.3116 0.869476H18.8482Z" fill="white"/>
<path d="M32.1224 4.53344C31.4508 4.52483 30.7849 4.65754 30.1685 4.92285C29.5521 5.18817 28.9991 5.58011 28.5458 6.07292C27.5918 7.08437 27.0748 8.42753 27.1059 9.81386C27.0789 11.2102 27.5947 12.563 28.5458 13.5907C29.0052 14.0764 29.5598 14.4635 30.1753 14.7281C30.7909 14.9927 31.4544 15.1292 32.125 15.1292C32.7956 15.1292 33.4591 14.9927 34.0747 14.7281C34.6902 14.4635 35.2448 14.0764 35.7042 13.5907C36.6516 12.5611 37.1652 11.2091 37.139 9.81386C37.1698 8.42853 36.6549 7.08606 35.7042 6.07292C35.2532 5.57579 34.7 5.18098 34.0819 4.91535C33.4639 4.64971 32.7956 4.51946 32.1224 4.53344ZM41.6033 9.81386C41.6108 11.0502 41.3712 12.2758 40.8982 13.4192C40.4252 14.5627 39.7283 15.6013 38.848 16.4746C37.9678 17.3479 36.9217 18.0385 35.7707 18.5063C34.6196 18.9741 33.3865 19.2098 32.1431 19.1996C30.9005 19.2126 29.6679 18.9787 28.5175 18.5115C27.3672 18.0442 26.3223 17.3531 25.4444 16.4788C24.5665 15.6044 23.8731 14.5644 23.4051 13.4198C22.937 12.2753 22.7038 11.0493 22.719 9.81386C22.6955 8.58617 22.9262 7.36681 23.3968 6.23154C23.8673 5.09627 24.5677 4.06936 25.4543 3.21462C26.3316 2.33676 27.3779 1.64389 28.5308 1.17745C29.6836 0.711014 30.9192 0.480605 32.1637 0.500005C33.4094 0.471911 34.6475 0.698343 35.8016 1.16528C36.9557 1.63222 38.0011 2.32972 38.8731 3.21462C39.7685 4.06455 40.4771 5.08976 40.9541 6.22558C41.4311 7.3614 41.6662 8.58318 41.6446 9.81386" fill="white"/>
<path d="M59.0115 13.7754V17.8807C57.3682 18.7913 55.5092 19.2468 53.6285 19.1996C52.373 19.2308 51.1242 19.0066 49.9589 18.5406C48.7936 18.0747 47.7364 17.3769 46.8521 16.4901C45.1182 14.7083 44.1519 12.3243 44.1586 9.84505C44.1654 7.3658 45.1447 4.98699 46.8882 3.21461C47.7723 2.32433 48.8309 1.62403 49.9983 1.15708C51.1657 0.690137 52.4171 0.46649 53.675 0.499998C54.5579 0.495931 55.4375 0.606336 56.2917 0.82842C56.93 0.975928 57.5484 1.19813 58.1341 1.49039L58.7277 1.81882V5.88818C57.2847 5.012 55.6238 4.55513 53.933 4.56935C53.2264 4.54438 52.5225 4.66868 51.8677 4.93405C51.213 5.19941 50.6222 5.59982 50.1345 6.10883C49.6451 6.60144 49.2589 7.18579 48.9984 7.82798C48.738 8.47016 48.6084 9.15739 48.6172 9.84978C48.604 11.2581 49.1491 12.6149 50.1345 13.6266C50.6283 14.1376 51.2253 14.539 51.8862 14.8043C52.5471 15.0696 53.257 15.1929 53.9692 15.1661C54.7866 15.1602 55.5993 15.0428 56.3846 14.8172C57.0597 14.6467 57.7192 14.4202 58.3561 14.1398L59.0115 13.7754Z" fill="white"/>
<path d="M67.5324 0.869476V7.61753L73.0651 0.869476H78.7784L71.4032 9.3007L79.408 18.8352H73.6896L67.5324 11.3174V18.8352H63.0681V0.869476H67.5324Z" fill="white"/>
<path d="M89.5495 4.53344C88.8777 4.52385 88.2116 4.65612 87.595 4.9215C86.9785 5.18688 86.4256 5.57933 85.9729 6.07292C85.0188 7.08436 84.5019 8.42752 84.533 9.81385C84.506 11.2102 85.0218 12.563 85.9729 13.5907C86.4315 14.077 86.9855 14.4646 87.6006 14.7295C88.2158 14.9945 88.8791 15.1312 89.5495 15.1312C90.2199 15.1312 90.8832 14.9945 91.4984 14.7295C92.1136 14.4646 92.6676 14.077 93.1261 13.5907C94.0772 12.563 94.593 11.2102 94.5661 9.81385C94.5972 8.42752 94.0802 7.08436 93.1261 6.07292C92.6764 5.57565 92.1241 5.18069 91.5068 4.91501C90.8896 4.64933 90.222 4.51918 89.5495 4.53344ZM99.0304 9.81385C99.0366 11.0499 98.7959 12.2748 98.3224 13.4176C97.8489 14.5605 97.152 15.5985 96.272 16.4715C95.3921 17.3446 94.3466 18.0352 93.1961 18.5035C92.0457 18.9718 90.8132 19.2084 89.5701 19.1996C88.3262 19.2176 87.0914 18.987 85.9388 18.5215C84.7862 18.056 83.7393 17.3651 82.8604 16.4898C81.9814 15.6144 81.2883 14.5724 80.822 13.4256C80.3558 12.2788 80.1259 11.0506 80.1461 9.81385C80.1228 8.58667 80.3532 7.3678 80.8228 6.23268C81.2924 5.09756 81.9913 4.07035 82.8763 3.21461C83.7548 2.33842 84.8013 1.64664 85.9539 1.18032C87.1064 0.714001 88.3414 0.482652 89.5856 0.500001C90.8314 0.471295 92.0697 0.697443 93.2239 1.16442C94.3781 1.63139 95.4234 2.32923 96.295 3.21461C97.1921 4.06353 97.9021 5.08843 98.3801 6.2244C98.8581 7.36038 99.0936 8.58267 99.0717 9.81385" fill="white"/>
<path d="M113.946 13.2623C113.946 12.1607 112.998 11.6099 111.102 11.6099H107.236V14.8018H111.479C112.109 14.8336 112.736 14.6858 113.285 14.3758C113.487 14.2669 113.655 14.106 113.772 13.91C113.889 13.7141 113.951 13.4903 113.951 13.2623M107.242 7.79714H110.968C111.592 7.83204 112.212 7.68584 112.754 7.37634C112.947 7.26814 113.109 7.11109 113.222 6.921C113.336 6.73091 113.396 6.5145 113.399 6.29358C113.405 6.07756 113.354 5.86364 113.251 5.6735C113.148 5.48336 112.996 5.32374 112.81 5.21081C112.331 4.93228 111.78 4.79855 111.226 4.82594H107.236L107.242 7.79714ZM117.863 6.037C117.867 6.63403 117.733 7.22396 117.471 7.76121C117.282 8.19754 117.013 8.59452 116.676 8.93122L116.263 9.30069C116.48 9.43015 116.688 9.57597 116.882 9.73688C117.278 10.1384 117.61 10.5968 117.868 11.0968C118.287 11.8207 118.502 12.6429 118.493 13.4778C118.51 14.2244 118.352 14.9646 118.031 15.6399C117.711 16.3151 117.236 16.9066 116.645 17.3676C115.308 18.3904 113.65 18.9102 111.964 18.8352H102.86V0.874607H110.885C113.053 0.874607 114.754 1.31422 115.99 2.19343C116.598 2.63026 117.086 3.21216 117.409 3.88559C117.732 4.55903 117.879 5.30238 117.837 6.04726" fill="white"/>
<path d="M136.092 13.7755V17.8807C134.449 18.7918 132.59 19.2473 130.709 19.1996C129.452 19.2319 128.201 19.0082 127.034 18.5423C125.867 18.0763 124.808 17.3779 123.922 16.4901C122.188 14.7083 121.222 12.3243 121.229 9.84505C121.235 7.3658 122.215 4.98699 123.958 3.21462C124.843 2.32508 125.902 1.62527 127.069 1.15837C128.236 0.691479 129.487 0.467411 130.745 0.500002C131.63 0.496247 132.511 0.606643 133.367 0.828424C134.005 0.976848 134.623 1.19901 135.209 1.4904L135.798 1.81882V5.88818C134.355 5.012 132.694 4.55514 131.003 4.56936C130.297 4.54537 129.593 4.67011 128.938 4.93542C128.284 5.20073 127.693 5.60061 127.205 6.10884C126.717 6.60237 126.332 7.18701 126.072 7.82906C125.813 8.4711 125.684 9.15787 125.692 9.84978C125.68 11.2571 126.222 12.6132 127.205 13.6266C127.699 14.1374 128.296 14.5386 128.956 14.8039C129.617 15.0692 130.327 15.1926 131.039 15.1661C131.857 15.1602 132.669 15.0428 133.455 14.8172C134.131 14.6466 134.793 14.42 135.431 14.1398L136.092 13.7755Z" fill="white"/>
<path d="M144.613 0.869476V7.61753L150.145 0.869476H155.864L148.489 9.3007L156.488 18.8352H150.775L144.613 11.3174V18.8352H140.154V0.869476H144.613Z" fill="white"/>
<path d="M159.441 18.8352V0.869476H163.905V11.9076L164.488 10.5118L170.8 0.869476H175.481V18.8352H171.022V7.76122L170.428 9.19293L164.091 18.8352H159.441Z" fill="white"/>
<path d="M188.575 4.31278C187.449 4.29167 186.359 4.70559 185.535 5.46739C184.675 6.25565 184.076 7.28441 183.816 8.41806H192.709C192.722 7.86027 192.614 7.30617 192.391 6.79406C192.169 6.28196 191.837 5.82405 191.418 5.452C190.653 4.72344 189.635 4.31555 188.575 4.31278ZM196.523 11.6099H183.93C184.272 12.6627 184.936 13.583 185.829 14.2424C186.764 14.92 187.898 15.2701 189.055 15.238C190.724 15.211 192.37 14.8369 193.885 14.1398L194.587 13.7755V17.9423C192.871 18.8306 190.953 19.2636 189.019 19.1996C186.139 19.1996 183.802 18.2827 182.01 16.449C181.137 15.5935 180.448 14.5706 179.985 13.4423C179.522 12.3141 179.294 11.1041 179.316 9.8857C179.286 8.65337 179.507 7.42778 179.963 6.28176C180.42 5.13574 181.104 4.09269 181.974 3.21462C182.794 2.34283 183.788 1.65104 184.893 1.18357C185.998 0.716099 187.188 0.483271 188.389 0.500007C189.493 0.464788 190.593 0.654676 191.621 1.05799C192.649 1.4613 193.583 2.0695 194.365 2.84514C195.165 3.59728 195.796 4.50925 196.216 5.52108C196.635 6.5329 196.835 7.62165 196.801 8.7157C196.799 9.1683 196.773 9.62049 196.724 10.0704C196.678 10.5579 196.631 10.9377 196.579 11.2045L196.523 11.6099Z" fill="white"/>
<path d="M21.0984 33.3987V51.3644H0V33.3987H4.46431V47.4028H8.33511V33.3987H12.6859V47.4028H16.6341V33.3987H21.0984Z" fill="white"/>
<path d="M30.6876 33.3987V40.1467L36.2203 33.3987H41.9336L34.5584 41.8299L42.5632 51.3644H36.8448L30.6876 43.8466V51.3644H26.2233V33.3987H30.6876Z" fill="white"/>
<path d="M52.7047 37.0627C52.0329 37.0531 51.3668 37.1853 50.7502 37.4507C50.1337 37.7161 49.5808 38.1085 49.1281 38.6021C48.1741 39.6136 47.6571 40.9567 47.6882 42.3431C47.6612 43.7394 48.177 45.0922 49.1281 46.1199C49.5867 46.6062 50.1407 46.9938 50.7558 47.2587C51.371 47.5237 52.0343 47.6604 52.7047 47.6604C53.3751 47.6604 54.0384 47.5237 54.6536 47.2587C55.2688 46.9938 55.8228 46.6062 56.2813 46.1199C57.2324 45.0922 57.7482 43.7394 57.7213 42.3431C57.7524 40.9567 57.2354 39.6136 56.2813 38.6021C55.8312 38.1054 55.2788 37.7108 54.6616 37.4452C54.0445 37.1795 53.3771 37.0491 52.7047 37.0627ZM62.1856 42.3431C62.1904 43.5791 61.9486 44.8039 61.4743 45.9464C61 47.089 60.3026 48.1267 59.4224 48.9995C58.5421 49.8723 57.4966 50.563 56.3462 51.0314C55.1957 51.4999 53.9633 51.7369 52.7202 51.7288C51.4781 51.7412 50.246 51.5067 49.0962 51.0392C47.9465 50.5716 46.9023 49.8804 46.0249 49.0061C45.1475 48.1318 44.4546 47.0921 43.9869 45.9479C43.5192 44.8037 43.2861 43.5781 43.3013 42.3431C43.2786 41.1152 43.5091 39.8957 43.9787 38.7598C44.4482 37.624 45.1469 36.5958 46.0315 35.7387C46.9104 34.8634 47.9572 34.1726 49.1097 33.7072C50.2622 33.2417 51.497 33.0112 52.7409 33.0292C53.9861 33.0008 55.2239 33.2265 56.378 33.6926C57.532 34.1586 58.5776 34.855 59.4502 35.7387C60.347 36.589 61.0567 37.6148 61.5346 38.7516C62.0125 39.8883 62.2482 41.1112 62.2269 42.3431" fill="white"/>
<path d="M67.0163 46.4894L68.3066 33.3987H81.106V51.3644H76.7191V37.3552H72.1412L71.109 47.6953L67.5324 52.5396L64.1777 50.3381L67.0163 46.4894Z" fill="white"/>
<path d="M102.865 33.3884H107.324V51.349H102.865V33.3884ZM90.654 43.6516V47.3926H94.0861C94.6715 47.411 95.2432 47.2136 95.6912 46.8383C95.8952 46.6728 96.0592 46.4636 96.1708 46.2264C96.2825 45.9892 96.3391 45.7301 96.3363 45.4682C96.329 45.2214 96.2652 44.9794 96.1499 44.7607C96.0345 44.5419 95.8706 44.3522 95.6705 44.2058C95.2274 43.8361 94.6643 43.6392 94.0861 43.6516H90.654ZM86.2671 51.349V33.3884H90.654V39.7003H94.0241C95.7819 39.6461 97.5011 40.2195 98.8704 41.3168C99.4885 41.8069 99.9843 42.4324 100.319 43.1445C100.654 43.8567 100.819 44.6361 100.801 45.422C100.81 46.2393 100.645 47.0492 100.315 47.798C100.002 48.514 99.5356 49.1533 98.9478 49.671C98.3267 50.2169 97.6044 50.637 96.8214 50.9077C95.9367 51.2106 95.0062 51.3598 94.0706 51.349H86.2671Z" fill="white"/>
<path d="M0 83.8936V65.9279H4.46431V76.9609L5.05267 75.5702L11.3595 65.9279H16.0457V83.8936H11.5814V72.8196L10.993 74.2462L4.65011 83.8936H0Z" fill="white"/>
<path d="M34.7442 78.8288V82.934C33.0981 83.8422 31.2381 84.2975 29.3561 84.2529C28.103 84.2826 26.857 84.0576 25.6944 83.5917C24.5319 83.1258 23.4772 82.4288 22.5951 81.5434C20.8622 79.7664 19.8931 77.3885 19.8931 74.9134C19.8931 72.4382 20.8622 70.0603 22.5951 68.2833C23.4796 67.3954 24.5376 66.6969 25.704 66.2309C26.8703 65.7649 28.1202 65.5413 29.3767 65.5738C30.2613 65.5694 31.1427 65.6798 31.9986 65.9023C32.6365 66.0485 33.255 66.269 33.8411 66.5591L34.4294 66.8927V70.962C32.9881 70.0815 31.3264 69.6226 29.6348 69.6381C28.9282 69.6131 28.2242 69.7374 27.5695 70.0028C26.9147 70.2681 26.324 70.6685 25.8362 71.1776C25.3486 71.6701 24.9639 72.2539 24.7044 72.8951C24.4448 73.5363 24.3156 74.2222 24.3241 74.9134C24.3104 76.3223 24.8534 77.6803 25.8362 78.6953C26.332 79.2052 26.9301 79.6057 27.5916 79.8709C28.2531 80.1361 28.9633 80.2601 29.6761 80.2348C30.4932 80.2257 31.3055 80.1083 32.0914 79.8859C32.7673 79.7156 33.4269 79.4872 34.063 79.2034L34.7442 78.8288Z" fill="white"/>
<path d="M43.2651 65.9279V72.6708L48.7978 65.9279H54.5111L47.1359 74.3591L55.1407 83.8936H49.4223L43.2651 76.3758V83.8936H38.8008V65.9279H43.2651Z" fill="white"/>
<path d="M70.1904 65.9279H74.9798L67.7182 87.6705L63.4397 93.5L60.2657 91.1189L63.5481 86.2388L64.3945 83.8936H62.552L57.5716 70.2898L55.5072 68.309L57.9432 65.3019L61.1895 67.7188L65.5403 79.8602H65.6899L70.1904 65.9279Z" fill="white"/>
<path d="M91.3197 78.8287V82.934C89.6739 83.8429 87.8137 84.2982 85.9316 84.2528C84.6746 84.2856 83.4242 84.0617 82.2577 83.5947C81.0912 83.1278 80.0335 82.4279 79.15 81.5382C77.4161 79.7565 76.4497 77.3725 76.4565 74.8932C76.4632 72.414 77.4425 70.0352 79.1861 68.2628C80.0712 67.3742 81.1301 66.6753 82.2973 66.2093C83.4646 65.7433 84.7155 65.52 85.9729 65.5533C86.8557 65.5492 87.7354 65.6596 88.5895 65.8817C89.2275 66.028 89.8459 66.2484 90.432 66.5386L91.0256 66.8721V70.9415C89.584 70.0615 87.9224 69.6026 86.2309 69.6175C85.5236 69.5928 84.819 69.7172 84.1634 69.9825C83.5078 70.2479 82.9161 70.6481 82.4272 71.157C81.9381 71.6506 81.5525 72.236 81.2929 72.8791C81.0333 73.5222 80.9049 74.2102 80.915 74.9031C80.8994 76.3114 81.4406 77.6695 82.4221 78.6851C82.9179 79.1949 83.5159 79.5954 84.1774 79.8606C84.8389 80.1259 85.5491 80.2498 86.2619 80.2245C87.079 80.2154 87.8913 80.098 88.6773 79.8756C89.3533 79.7061 90.0131 79.4777 90.6488 79.1931L91.3197 78.8287Z" fill="white"/>
<path d="M108.95 78.8288V82.934C107.304 83.8429 105.444 84.2982 103.562 84.2529C102.304 84.2854 101.053 84.0614 99.8856 83.5945C98.7183 83.1276 97.6597 82.4278 96.775 81.5382C95.043 79.7552 94.0784 77.371 94.0861 74.8922C94.0938 72.4133 95.0732 70.0351 96.8163 68.2628C97.7042 67.3725 98.7666 66.6731 99.9376 66.208C101.109 65.7428 102.363 65.5217 103.624 65.5584C104.507 65.5547 105.386 65.6651 106.24 65.8869C106.878 66.0331 107.497 66.2536 108.083 66.5437L108.676 66.8773V70.9466C107.234 70.0674 105.573 69.6086 103.882 69.6227C103.174 69.5973 102.469 69.7214 101.814 69.9867C101.158 70.2521 100.567 70.6527 100.078 71.1621C99.5911 71.655 99.2072 72.2389 98.9485 72.8801C98.6899 73.5213 98.5616 74.2071 98.571 74.898C98.5554 76.3063 99.0966 77.6644 100.078 78.6799C100.574 79.1898 101.172 79.5903 101.833 79.8555C102.495 80.1207 103.205 80.2447 103.918 80.2194C104.735 80.2103 105.547 80.0929 106.333 79.8705C107.009 79.7002 107.669 79.4718 108.305 79.188L108.95 78.8288Z" fill="white"/>
<path d="M126.136 69.8844H120.826V83.8936H116.439V69.8844H111.164V65.9279H126.136V69.8844Z" fill="white"/>
<path d="M140.52 78.3156C140.52 77.2174 139.574 76.6683 137.681 76.6683H133.811V79.8551H138.048C138.678 79.889 139.305 79.743 139.854 79.4343C140.056 79.3241 140.224 79.1622 140.341 78.9654C140.458 78.7686 140.52 78.5442 140.52 78.3156ZM133.811 72.8504H137.532C138.157 72.8855 138.779 72.7393 139.323 72.4296C139.516 72.321 139.677 72.1639 139.791 71.9739C139.904 71.7839 139.965 71.5677 139.968 71.3469C139.974 71.131 139.922 70.9174 139.818 70.7281C139.714 70.5387 139.561 70.3803 139.374 70.2692C138.895 69.9899 138.345 69.8561 137.79 69.8844H133.811V72.8504ZM144.427 71.0954C144.43 71.6902 144.298 72.2779 144.04 72.8145C143.849 73.252 143.577 73.6504 143.24 73.9896L142.832 74.354C143.047 74.4885 143.254 74.6359 143.452 74.7953C143.849 75.1936 144.181 75.6506 144.437 76.15C144.854 76.8762 145.068 77.7002 145.057 78.5363C145.075 79.2817 144.918 80.0211 144.598 80.6955C144.278 81.3699 143.804 81.9607 143.214 82.4209C141.875 83.4441 140.215 83.9639 138.528 83.8885H129.455V65.9279H137.48C139.648 65.9279 141.348 66.3675 142.579 67.2467C143.188 67.6836 143.676 68.2655 143.998 68.9389C144.321 69.6123 144.469 70.3557 144.427 71.1006" fill="white"/>
<path d="M220.909 1.05934C219.876 0.510262 218.024 1.05934 217.033 2.7579C216.042 4.45646 215.128 6.96582 216.893 11.7433C217.409 13.1751 218.865 16.4182 219.206 19.764C218.953 22.4146 218.545 25.0483 217.982 27.6513C217.8 27.2966 217.651 26.9255 217.539 26.5429C216.739 23.8539 215.041 21.7089 212.377 19.9898C210.628 18.866 209.043 18.9635 208.016 20.2618C207.284 21.1957 206.927 22.6942 207.025 24.48C207.294 29.2216 211.794 32.3416 213.167 33.2037C214.154 33.7982 215.046 34.5349 215.815 35.3898C214.163 40.1189 211.942 44.6317 209.198 48.8294C208.956 46.084 207.211 42.3841 204.909 41.091C204.398 40.7861 203.815 40.6192 203.218 40.6066C202.622 40.594 202.033 40.7362 201.508 41.0191C200.976 41.2804 200.508 41.6533 200.135 42.1122C197.792 45.0834 199.459 50.8667 201.054 53.2734C201.806 54.4015 202.402 55.6253 202.824 56.9117C199.459 60.5259 195.67 63.7252 191.537 66.4411C191.857 64.9478 192.053 62.8489 191.243 60.981C190.335 58.836 189.024 57.548 187.553 57.353C185.726 57.1118 183.883 58.6205 182.789 61.2633C181.649 64.0138 182.851 68.9607 183.501 70.9672C177.054 74.0418 170.19 76.1647 163.125 77.2688C162.284 77.4124 161.608 78.254 161.877 78.8082C161.985 79.0443 162.326 79.773 163.662 79.5728C168.401 78.8575 173.065 77.7171 177.597 76.1655C178.779 78.0282 180.988 81.0867 183.605 82.621C186.443 84.2837 190.83 84.5505 192.657 82.2669C192.968 81.8533 193.191 81.3812 193.312 80.8792C193.434 80.3773 193.452 79.856 193.364 79.347C192.972 76.2065 188.394 74.4823 184.147 73.5586C189.253 71.2576 194.047 68.3267 198.417 64.8349C200.332 66.4565 203.759 69.13 206.922 70.4335C210.256 71.8036 214.824 71.7933 216.728 69.4071C217.089 68.9286 217.34 68.3776 217.463 67.7926C217.587 67.2076 217.581 66.6027 217.446 66.0203C216.63 61.3454 210.024 60.5654 207.536 60.2729C207.273 60.2421 207.062 60.2164 206.917 60.1908C205.856 60.0753 204.789 60.0307 203.722 60.0574C204.584 59.185 205.441 58.2613 206.303 57.276L206.52 57.0964L206.68 56.8399C208.929 54.2229 210.954 51.4232 212.734 48.4702C214.112 49.045 218.189 50.4818 221.92 49.3426C223.782 48.8031 225.436 47.7153 226.663 46.2226C227.902 44.6574 228.32 42.8922 227.788 41.5066C227.35 40.3623 226.297 39.5925 224.821 39.3308C221.848 38.8177 219.092 39.0999 216.924 40.1622C219.402 34.23 221.131 26.3735 221.796 19.8205C224.279 15.7562 225.017 12.9287 224.96 9.04411C224.903 5.04146 222.968 2.1575 220.924 1.07987" fill="white"/>
</g>
<defs>
<clipPath id="clip0_69_1722">
<rect width="228" height="93" fill="white" transform="translate(0 0.5)"/>
</clipPath>
</defs>
</svg>
