<svg width="33" height="28" viewBox="0 0 33 28" fill="none" xmlns="http://www.w3.org/2000/svg">
<path d="M8.86021 26.6687C7.77657 28.1182 5.69085 28.4327 4.49208 27.0769C3.01684 25.4084 1.89796 23.4409 1.22041 21.2941C0.212027 18.0991 0.232057 14.6681 1.27768 11.4851C2.3233 8.30204 4.34175 5.52754 7.04838 3.55287C9.755 1.57821 13.0132 0.503015 16.3635 0.478932C19.7138 0.454849 22.9871 1.48309 25.7219 3.41864C28.4566 5.35419 30.5147 8.09939 31.606 11.2671C32.6973 14.4348 32.7666 17.8651 31.8043 21.0743C31.1577 23.2306 30.0672 25.214 28.6161 26.9035C27.4369 28.2764 25.3469 27.9919 24.2425 26.5581C23.1382 25.1244 23.4709 23.0825 24.4438 21.5565C24.9093 20.8263 25.275 20.0313 25.5267 19.1918C26.0949 17.2971 26.0539 15.2719 25.4097 13.4017C24.7654 11.5316 23.5503 9.91081 21.9357 8.76808C20.3212 7.62534 18.3886 7.01828 16.4106 7.0325C14.4326 7.04672 12.509 7.6815 10.911 8.84733C9.31308 10.0132 8.1214 11.6512 7.50407 13.5304C6.88675 15.4097 6.87492 17.4353 7.47026 19.3216C7.73403 20.1574 8.11108 20.9471 8.58704 21.6705C9.58175 23.1824 9.94385 25.2192 8.86021 26.6687Z" fill="white"/>
<path d="M8.8563 26.6719C7.77414 28.1191 5.69161 28.4329 4.49434 27.0794C3.41232 25.8562 2.51964 24.4697 1.85235 22.9651C0.740765 20.4586 0.29195 17.7085 0.54897 14.9787C0.80599 12.2489 1.76022 9.63092 3.32011 7.37598C4.87999 5.12105 6.99319 3.30481 9.45695 2.10154C11.9207 0.898263 14.6524 0.348326 17.3898 0.504491C20.1272 0.660655 22.7786 1.51768 25.0896 2.99334C27.4005 4.469 29.2934 6.51377 30.5868 8.93148C31.3631 10.3828 31.9078 11.9393 32.2073 13.5447C32.5386 15.3212 31.0107 16.7706 29.204 16.7343C27.3973 16.698 26.0154 15.1628 25.4368 13.4508C25.2705 12.9588 25.0633 12.4795 24.8165 12.0182C24.0522 10.5893 22.9334 9.38084 21.5677 8.50872C20.2019 7.6366 18.6349 7.1301 17.0171 7.0378C15.3992 6.94551 13.7848 7.27053 12.3287 7.98167C10.8727 8.69281 9.62374 9.76621 8.70185 11.0989C7.77995 12.4316 7.21599 13.9788 7.06409 15.5921C6.91219 17.2055 7.17744 18.8308 7.8344 20.3121C8.04649 20.7903 8.2971 21.2484 8.58293 21.6821C9.57734 23.1909 9.93846 25.2247 8.8563 26.6719Z" fill="url(#paint0_linear_82_4063)"/>
<path d="M20 16.5C20 18.433 18.433 20 16.5 20C14.567 20 13 18.433 13 16.5C13 14.567 14.567 13 16.5 13C18.433 13 20 14.567 20 16.5Z" fill="#ACD779"/>
<defs>
<linearGradient id="paint0_linear_82_4063" x1="-3.67976" y1="15.2762" x2="34.6508" y2="14.2729" gradientUnits="userSpaceOnUse">
<stop stop-color="#E25656"/>
<stop offset="0.546875" stop-color="#EFF171"/>
<stop offset="1" stop-color="#68BB80"/>
</linearGradient>
</defs>
</svg>
