<svg width="97" height="27" viewBox="0 0 97 27" fill="none" xmlns="http://www.w3.org/2000/svg">
<rect opacity="0.2" width="97" height="27" rx="13.5" fill="#B49FC4"/>
<path d="M37.2136 9.89062H38.4539L40.28 15.1104L42.1062 9.89062H43.3464L40.7781 17H39.782L37.2136 9.89062ZM36.5447 9.89062H37.78L38.0046 14.9785V17H36.5447V9.89062ZM42.78 9.89062H44.0203V17H42.5554V14.9785L42.78 9.89062ZM48.2359 14.4219L49.9839 9.89063L51.5611 9.89063L49.1246 15.623C49.0399 15.8184 48.9423 16.0055 48.8316 16.1846C48.7242 16.3604 48.5956 16.5182 48.4458 16.6582C48.2961 16.7949 48.1171 16.904 47.9087 16.9854C47.7004 17.0635 47.4514 17.1025 47.1617 17.1025C47.0901 17.1025 47.0022 17.1009 46.898 17.0977C46.7938 17.0944 46.7108 17.0895 46.649 17.083L46.6392 15.9404C46.6783 15.9502 46.7401 15.9567 46.8248 15.96C46.9094 15.96 46.9712 15.96 47.0103 15.96C47.2024 15.96 47.3537 15.9323 47.4644 15.877C47.5751 15.8216 47.663 15.7435 47.7281 15.6426C47.7964 15.5384 47.8567 15.4163 47.9087 15.2764L48.2359 14.4219ZM47.0787 9.89063L48.6998 13.4111L49.1539 15.0273L48.065 15.0469L45.5064 9.89063H47.0787ZM55.6791 13.5918H54.5755V12.8154H55.4544C55.7116 12.8154 55.9199 12.7764 56.0794 12.6982C56.2389 12.6169 56.3561 12.5029 56.431 12.3564C56.5059 12.21 56.5433 12.0374 56.5433 11.8389C56.5433 11.6761 56.501 11.5264 56.4164 11.3896C56.335 11.2529 56.208 11.1439 56.0355 11.0625C55.863 10.9779 55.6432 10.9355 55.3763 10.9355C55.1745 10.9355 54.9906 10.9714 54.8246 11.043C54.6585 11.1146 54.5267 11.2155 54.4291 11.3457C54.3314 11.4727 54.2826 11.6273 54.2826 11.8096H52.8226C52.8226 11.4971 52.8893 11.2171 53.0228 10.9697C53.1595 10.7191 53.3451 10.5075 53.5794 10.335C53.8171 10.1592 54.0905 10.0257 54.3998 9.93457C54.709 9.84342 55.0345 9.79785 55.3763 9.79785C55.7767 9.79785 56.138 9.8418 56.4603 9.92969C56.7826 10.0143 57.0593 10.1413 57.2904 10.3105C57.5215 10.4798 57.6989 10.6898 57.8226 10.9404C57.9463 11.1911 58.0082 11.4824 58.0082 11.8145C58.0082 12.0586 57.9528 12.2881 57.8421 12.5029C57.7315 12.7178 57.5736 12.9066 57.3685 13.0693C57.1634 13.2321 56.9177 13.3607 56.6312 13.4551C56.3447 13.5462 56.0274 13.5918 55.6791 13.5918ZM54.5755 13.167H55.6791C56.0664 13.167 56.4098 13.2077 56.7093 13.2891C57.0121 13.3704 57.2676 13.4893 57.4759 13.6455C57.6875 13.8018 57.847 13.9954 57.9544 14.2266C58.0651 14.4544 58.1205 14.7165 58.1205 15.0127C58.1205 15.3447 58.0521 15.6393 57.9154 15.8965C57.7819 16.1536 57.5915 16.3717 57.3441 16.5508C57.1 16.7298 56.8102 16.8649 56.475 16.9561C56.1429 17.0472 55.7767 17.0928 55.3763 17.0928C55.0573 17.0928 54.7399 17.0537 54.4242 16.9756C54.1084 16.8942 53.822 16.7705 53.5648 16.6045C53.3076 16.4385 53.1026 16.2253 52.9496 15.9648C52.7966 15.7044 52.7201 15.3919 52.7201 15.0273L54.1898 15.0273C54.1898 15.1999 54.2403 15.3577 54.3412 15.501C54.4421 15.641 54.582 15.7533 54.7611 15.8379C54.9401 15.9193 55.1452 15.96 55.3763 15.96C55.6465 15.96 55.876 15.9176 56.0648 15.833C56.2569 15.7484 56.4017 15.6328 56.4994 15.4863C56.6003 15.3366 56.6507 15.1722 56.6507 14.9932C56.6507 14.8011 56.6247 14.6383 56.5726 14.5049C56.5205 14.3714 56.444 14.2624 56.3431 14.1777C56.2422 14.0898 56.1169 14.0264 55.9671 13.9873C55.8207 13.9482 55.6498 13.9287 55.4544 13.9287H54.5755V13.167ZM60.8712 12.4834H62.5314C63.088 12.4834 63.5682 12.5762 63.9718 12.7617C64.3787 12.9473 64.6896 13.2077 64.9044 13.543C65.1225 13.8783 65.2316 14.2689 65.2316 14.7148C65.2316 15.0534 65.1697 15.3626 65.046 15.6426C64.9223 15.9193 64.7433 16.1602 64.5089 16.3652C64.2746 16.5671 63.9914 16.7233 63.6593 16.834C63.3273 16.9447 62.9513 17 62.5314 17H59.9142V9.89063H61.3839V15.8574H62.5314C62.8081 15.8574 63.0376 15.8053 63.2199 15.7012C63.4054 15.597 63.5438 15.4587 63.6349 15.2861C63.7261 15.1104 63.7716 14.9167 63.7716 14.7051C63.7716 14.5033 63.7261 14.321 63.6349 14.1582C63.5438 13.9922 63.4054 13.862 63.2199 13.7676C63.0376 13.6732 62.8081 13.626 62.5314 13.626H60.8712V12.4834ZM67.3214 9.89063V17L65.8615 17V9.89063H67.3214ZM70.7656 9.89063V17H69.3007V9.89063H70.7656ZM74.955 9.89063L72.2304 14.0654H70.4384L70.2529 12.7617H71.4492L73.1777 9.89063H74.955ZM73.4462 17L71.4541 13.8213L72.4697 12.7764L75.1845 17H73.4462ZM79.3513 11.1064L77.4177 17H75.8601L78.5017 9.89063H79.4929L79.3513 11.1064ZM80.9578 17L79.0193 11.1064L78.863 9.89063H79.864L82.5203 17H80.9578ZM80.8699 14.3535V15.501L77.115 15.501V14.3535L80.8699 14.3535Z" fill="#B29DC3"/>
<path d="M18.7644 19.4883C19.7389 19.4883 20.5289 18.6983 20.5289 17.7239C20.5289 16.7494 19.7389 15.9594 18.7644 15.9594C17.79 15.9594 17 16.7494 17 17.7239C17 18.6983 17.79 19.4883 18.7644 19.4883Z" stroke="#B29DC3" stroke-width="1.28571" stroke-linecap="round" stroke-linejoin="round"/>
<path d="M26.7041 17.2827C27.6786 17.2827 28.4686 16.4928 28.4686 15.5183C28.4686 14.5438 27.6786 13.7538 26.7041 13.7538C25.7297 13.7538 24.9397 14.5438 24.9397 15.5183C24.9397 16.4928 25.7297 17.2827 26.7041 17.2827Z" stroke="#B29DC3" stroke-width="1.28571" stroke-linecap="round" stroke-linejoin="round"/>
<path d="M28.4688 15.5183V8.60172C28.4684 8.53423 28.4525 8.46772 28.4224 8.40731C28.3923 8.34691 28.3487 8.29423 28.295 8.25332C28.2413 8.21242 28.179 8.18438 28.1127 8.17136C28.0465 8.15835 27.9782 8.16071 27.913 8.17826L20.8552 10.1368C20.762 10.1619 20.6795 10.2169 20.6205 10.2934C20.5616 10.3699 20.5294 10.4637 20.5288 10.5603V17.7239" stroke="#B29DC3" stroke-width="1.28571" stroke-linecap="round" stroke-linejoin="round"/>
<path d="M20.5288 12.8716L28.4688 10.6661" stroke="#B29DC3" stroke-width="1.28571" stroke-linecap="round" stroke-linejoin="round"/>
</svg>
