<svg width="15" height="14" viewBox="0 0 15 14" fill="none" xmlns="http://www.w3.org/2000/svg">
<g clip-path="url(#clip0_76_3914)">
<path d="M6.69306 12.0088C5.16954 13.5422 2.58056 14.0501 1.08691 12.5166C3.07844 10.4554 1.08691 9.45961 2.58056 7.96597C2.84283 7.67382 3.16192 7.43821 3.51832 7.27356C3.87473 7.1089 4.26097 7.01865 4.65344 7.00832C5.04591 6.99799 5.43636 7.0678 5.80093 7.21348C6.16551 7.35917 6.49655 7.57766 6.77382 7.85561C7.0511 8.13356 7.26878 8.46513 7.41357 8.83006C7.55836 9.19499 7.62722 9.58562 7.61593 9.97806C7.60464 10.3705 7.51345 10.7565 7.34792 11.1125C7.1824 11.4685 6.94602 11.787 6.65323 12.0486L6.69306 12.0088Z" stroke="white" stroke-width="1.15" stroke-linecap="round" stroke-linejoin="round"/>
<path d="M13.4543 1.07536C13.2612 0.883471 13.0307 0.733219 12.7773 0.633884C12.5238 0.534548 12.2526 0.488238 11.9806 0.497815C11.7087 0.505205 11.4412 0.568215 11.1945 0.682958C10.9479 0.797701 10.7274 0.961745 10.5467 1.16498L5.18945 7.13955C5.76392 7.25331 6.28913 7.542 6.69305 7.96603C7.05634 8.32784 7.32039 8.77707 7.45979 9.27048L13.3647 3.98298C13.5667 3.80335 13.73 3.58445 13.8447 3.33965C13.9594 3.09484 14.0231 2.82925 14.0318 2.55904C14.0428 2.28531 13.9971 2.01226 13.8978 1.75697C13.7984 1.50168 13.6474 1.26964 13.4543 1.07536Z" stroke="white" stroke-width="1.15" stroke-linecap="round" stroke-linejoin="round"/>
</g>
<defs>
<clipPath id="clip0_76_3914">
<rect width="13.9407" height="13.9407" fill="white" transform="translate(0.588867)"/>
</clipPath>
</defs>
</svg>
