<svg width="17" height="16" viewBox="0 0 17 16" fill="none" xmlns="http://www.w3.org/2000/svg">
<g clip-path="url(#clip0_76_3905)">
<path d="M2.59692 9.64213C1.66385 8.45936 1.15635 6.99679 1.15625 5.49029V1.79221C2.71119 0.987566 4.43644 0.567627 6.18723 0.567627C7.93803 0.567627 9.66328 0.987566 11.2182 1.79221" stroke="white" stroke-width="1.21429" stroke-linecap="round" stroke-linejoin="round"/>
<path d="M9.42598 15.246C9.02901 15.3357 8.61641 15.3301 8.22204 15.2295C7.82767 15.129 7.46276 14.9364 7.15722 14.6675C6.09572 13.7524 5.30968 12.5601 4.88698 11.2239C4.46428 9.8877 4.42159 8.46025 4.76367 7.10116L5.59177 3.78877C7.39032 3.33262 9.27397 3.33015 11.0737 3.78157C12.8734 4.23299 14.5329 5.12418 15.9033 6.37516L15.0752 9.67621C14.7414 11.0365 14.0365 12.2775 13.0391 13.2609C12.0417 14.2443 10.7909 14.9315 9.42598 15.246Z" stroke="white" stroke-width="1.21429" stroke-linecap="round" stroke-linejoin="round"/>
<path d="M6.95288 7.38486C7.09598 7.2351 7.27735 7.12739 7.47733 7.0734C7.6773 7.0194 7.88824 7.02119 8.08726 7.07857C8.28207 7.1244 8.46128 7.22095 8.60672 7.35842C8.75216 7.49588 8.85864 7.66938 8.91536 7.8613" stroke="white" stroke-width="1.21429" stroke-linecap="round" stroke-linejoin="round"/>
<path d="M11.4448 8.50785C11.5833 8.35899 11.7593 8.2501 11.9544 8.19258C12.1494 8.13505 12.3563 8.13101 12.5534 8.18088C12.7506 8.23074 12.9307 8.33267 13.0749 8.47601C13.2191 8.61935 13.3222 8.79882 13.3733 8.99563" stroke="white" stroke-width="1.21429" stroke-linecap="round" stroke-linejoin="round"/>
</g>
<defs>
<clipPath id="clip0_76_3905">
<rect width="15.8813" height="15.8813" fill="white" transform="translate(0.588867)"/>
</clipPath>
</defs>
</svg>
