<svg width="29" height="29" viewBox="0 0 29 29" fill="none" xmlns="http://www.w3.org/2000/svg">
<path d="M29 11.8175C29 19.971 24.0789 26.2398 15.1316 28.3701C5.73683 30.607 0.368408 21.7605 0.368408 13.607C0.368408 5.45352 6.9781 0.633301 15.1316 0.633301C23.285 0.633301 29 3.66404 29 11.8175Z" fill="#AFCC46"/>
<g clip-path="url(#clip0_56_577)">
<path d="M14.1864 19.9993C12.5241 21.6724 9.69928 22.2265 8.06958 20.5534C10.2425 18.3044 8.06958 17.2179 9.69928 15.5882C9.98544 15.2694 10.3336 15.0124 10.7225 14.8327C11.1113 14.6531 11.5328 14.5546 11.961 14.5433C12.3892 14.5321 12.8152 14.6082 13.213 14.7672C13.6108 14.9261 13.972 15.1645 14.2745 15.4678C14.577 15.7711 14.8146 16.1328 14.9725 16.531C15.1305 16.9292 15.2056 17.3554 15.1933 17.7836C15.181 18.2118 15.0815 18.6329 14.9009 19.0214C14.7203 19.4098 14.4624 19.7573 14.1429 20.0427L14.1864 19.9993Z" stroke="black" stroke-width="1.15" stroke-linecap="round" stroke-linejoin="round"/>
<path d="M21.5636 8.06985C21.3528 7.86048 21.1014 7.69655 20.8249 7.58816C20.5483 7.47978 20.2525 7.42925 19.9556 7.4397C19.6589 7.44776 19.3671 7.51651 19.098 7.64171C18.8289 7.7669 18.5883 7.94589 18.3911 8.16763L12.5459 14.6864C13.1727 14.8105 13.7457 15.1255 14.1865 15.5882C14.5828 15.983 14.8709 16.4731 15.023 17.0115L21.4658 11.2423C21.6862 11.0463 21.8644 10.8075 21.9896 10.5404C22.1147 10.2733 22.1842 9.9835 22.1937 9.68868C22.2057 9.39002 22.1559 9.0921 22.0475 8.81356C21.939 8.53501 21.7743 8.28183 21.5636 8.06985Z" stroke="black" stroke-width="1.15" stroke-linecap="round" stroke-linejoin="round"/>
</g>
<defs>
<clipPath id="clip0_56_577">
<rect width="15.2105" height="15.2105" fill="white" transform="translate(7.52637 6.89648)"/>
</clipPath>
</defs>
</svg>
