<svg width="112" height="27" viewBox="0 0 112 27" fill="none" xmlns="http://www.w3.org/2000/svg">
<rect opacity="0.2" width="112" height="27" rx="13.5" fill="#AFCC46"/>
<path d="M37.8054 14.0703L35.0955 9.89062H36.9167L38.5085 12.7715H39.7439L39.5535 14.0703H37.8054ZM38.4988 13.8457L36.8142 17H34.988L37.3171 12.9961L38.4988 13.8457ZM40.7009 9.89062V17H39.2458V9.89062H40.7009ZM44.7927 9.89063L42.1218 14.0703L40.3835 14.0703L40.1931 12.7715H41.4187L42.9714 9.89062L44.7927 9.89063ZM43.074 17L41.4285 13.8457L42.615 12.9961L44.9001 17H43.074ZM47.6558 14.6953L50.5123 9.89063H51.9771V17H50.5123V12.1953L47.6558 17H46.191V9.89063H47.6558V14.6953ZM56.7298 13.8799H54.9037L54.8939 12.874H56.4271C56.6973 12.874 56.9186 12.8398 57.0912 12.7715C57.2637 12.6999 57.3923 12.5973 57.4769 12.4639C57.5648 12.3271 57.6087 12.1611 57.6087 11.9658C57.6087 11.7445 57.5664 11.5654 57.4818 11.4287C57.4004 11.292 57.2718 11.1927 57.096 11.1309C56.9235 11.069 56.7005 11.0381 56.4271 11.0381H55.4115V17H53.9466V9.89063H56.4271C56.8405 9.89063 57.21 9.92969 57.5355 10.0078C57.8643 10.0859 58.1426 10.2048 58.3705 10.3643C58.5983 10.5238 58.7725 10.7256 58.8929 10.9697C59.0134 11.2106 59.0736 11.4971 59.0736 11.8291C59.0736 12.1221 59.0069 12.3923 58.8734 12.6396C58.7432 12.887 58.5365 13.0889 58.2533 13.2451C57.9733 13.4014 57.6071 13.4876 57.1546 13.5039L56.7298 13.8799ZM56.6664 17H54.5033L55.0746 15.8574H56.6664C56.9235 15.8574 57.1335 15.8167 57.2962 15.7354C57.459 15.6507 57.5794 15.5368 57.6576 15.3936C57.7357 15.2503 57.7748 15.0859 57.7748 14.9004C57.7748 14.6921 57.7389 14.5114 57.6673 14.3584C57.599 14.2054 57.4883 14.0882 57.3353 14.0068C57.1823 13.9222 56.9805 13.8799 56.7298 13.8799H55.3187L55.3285 12.874H57.0863L57.4232 13.2695C57.8561 13.263 58.2044 13.3395 58.4681 13.499C58.735 13.6553 58.9287 13.8587 59.0492 14.1094C59.1729 14.36 59.2347 14.6286 59.2347 14.915C59.2347 15.3708 59.1354 15.7549 58.9369 16.0674C58.7383 16.3766 58.447 16.6094 58.0628 16.7656C57.682 16.9219 57.2165 17 56.6664 17ZM66.8732 13.2793V13.6162C66.8732 14.1566 66.8 14.6416 66.6535 15.0713C66.507 15.501 66.3003 15.8672 66.0333 16.1699C65.7664 16.4694 65.4474 16.6989 65.0763 16.8584C64.7085 17.0179 64.3 17.0977 63.8507 17.0977C63.4048 17.0977 62.9962 17.0179 62.6251 16.8584C62.2573 16.6989 61.9383 16.4694 61.6681 16.1699C61.3979 15.8672 61.188 15.501 61.0382 15.0713C60.8917 14.6416 60.8185 14.1566 60.8185 13.6162V13.2793C60.8185 12.7357 60.8917 12.2507 61.0382 11.8242C61.1847 11.3945 61.3914 11.0283 61.6583 10.7256C61.9285 10.4229 62.2475 10.1917 62.6154 10.0322C62.9865 9.87272 63.395 9.79297 63.841 9.79297C64.2902 9.79297 64.6987 9.87272 65.0666 10.0322C65.4376 10.1917 65.7567 10.4229 66.0236 10.7256C66.2938 11.0283 66.5021 11.3945 66.6486 11.8242C66.7983 12.2507 66.8732 12.7357 66.8732 13.2793ZM65.3937 13.6162V13.2695C65.3937 12.8919 65.3595 12.5599 65.2912 12.2734C65.2228 11.987 65.1219 11.7461 64.9884 11.5508C64.855 11.3555 64.6922 11.209 64.5001 11.1113C64.3081 11.0104 64.0884 10.96 63.841 10.96C63.5936 10.96 63.3738 11.0104 63.1818 11.1113C62.993 11.209 62.8319 11.3555 62.6984 11.5508C62.5682 11.7461 62.4689 11.987 62.4005 12.2734C62.3322 12.5599 62.298 12.8919 62.298 13.2695V13.6162C62.298 13.9906 62.3322 14.3226 62.4005 14.6123C62.4689 14.8988 62.5698 15.1413 62.7033 15.3398C62.8367 15.5352 62.9995 15.6833 63.1916 15.7842C63.3836 15.8851 63.6033 15.9355 63.8507 15.9355C64.0981 15.9355 64.3179 15.8851 64.5099 15.7842C64.702 15.6833 64.8631 15.5352 64.9933 15.3398C65.1235 15.1413 65.2228 14.8988 65.2912 14.6123C65.3595 14.3226 65.3937 13.9906 65.3937 13.6162ZM74.4189 9.89063V17H72.9541V11.0381H70.0976V17H68.6328V9.89063L74.4189 9.89063ZM77.8093 14.6953L80.6658 9.89063H82.1306V17H80.6658V12.1953L77.8093 17H76.3445V9.89063H77.8093V14.6953ZM88.2212 14.6416L89.6812 14.6416C89.6519 15.1201 89.5201 15.5449 89.2857 15.916C89.0546 16.2871 88.7307 16.5768 88.314 16.7852C87.9006 16.9935 87.4026 17.0977 86.8199 17.0977C86.3641 17.0977 85.9556 17.0195 85.5943 16.8633C85.233 16.7038 84.9237 16.4759 84.6666 16.1797C84.4126 15.8835 84.219 15.5254 84.0855 15.1055C83.952 14.6855 83.8853 14.2152 83.8853 13.6943V13.2012C83.8853 12.6803 83.9537 12.21 84.0904 11.79C84.2304 11.3669 84.4289 11.0072 84.6861 10.7109C84.9465 10.4147 85.2574 10.1868 85.6187 10.0273C85.98 9.86784 86.3837 9.78809 86.8296 9.78809C87.4221 9.78809 87.9218 9.89551 88.3287 10.1104C88.7388 10.3252 89.0562 10.6214 89.2808 10.999C89.5087 11.3766 89.6454 11.8063 89.691 12.2881H88.2261C88.2098 12.0016 88.1529 11.7591 88.0552 11.5605C87.9576 11.3587 87.8095 11.2074 87.6109 11.1064C87.4156 11.0023 87.1552 10.9502 86.8296 10.9502C86.5855 10.9502 86.3723 10.9958 86.19 11.0869C86.0077 11.1781 85.8547 11.3164 85.731 11.502C85.6073 11.6875 85.5145 11.9219 85.4527 12.2051C85.3941 12.485 85.3648 12.8138 85.3648 13.1914V13.6943C85.3648 14.0622 85.3925 14.3861 85.4478 14.666C85.5031 14.9427 85.5878 15.1771 85.7017 15.3691C85.8189 15.5579 85.9686 15.7012 86.1509 15.7988C86.3365 15.8932 86.5595 15.9404 86.8199 15.9404C87.1259 15.9404 87.3781 15.8916 87.5767 15.7939C87.7753 15.6963 87.9266 15.5514 88.0308 15.3594C88.1382 15.1673 88.2017 14.9281 88.2212 14.6416ZM92.2904 12.4834L93.9505 12.4834C94.5104 12.4834 94.9922 12.5762 95.3959 12.7617C95.7995 12.9473 96.1104 13.2077 96.3285 13.543C96.5466 13.8783 96.6556 14.2689 96.6556 14.7148C96.6556 15.0534 96.5938 15.3626 96.4701 15.6426C96.3464 15.9193 96.1657 16.1602 95.9281 16.3652C95.6937 16.5671 95.4105 16.7233 95.0785 16.834C94.7464 16.9447 94.3705 17 93.9505 17H91.3334V9.89063L92.8031 9.89063V15.8574H93.9505C94.2305 15.8574 94.4616 15.8053 94.6439 15.7012C94.8262 15.597 94.9629 15.4587 95.0541 15.2861C95.1485 15.1104 95.1957 14.9167 95.1957 14.7051C95.1957 14.5033 95.1485 14.321 95.0541 14.1582C94.9629 13.9922 94.8262 13.862 94.6439 13.7676C94.4616 13.6732 94.2305 13.626 93.9505 13.626H92.2904V12.4834Z" fill="#AFCC46"/>
<g clip-path="url(#clip0_82_4051)">
<path d="M18.66 19.1027C16.9977 20.7759 14.1729 21.33 12.5432 19.6568C14.7161 17.4078 12.5432 16.3214 14.1729 14.6917C14.4591 14.3729 14.8072 14.1158 15.1961 13.9362C15.585 13.7565 16.0064 13.6581 16.4346 13.6468C16.8628 13.6355 17.2888 13.7117 17.6866 13.8706C18.0844 14.0296 18.4456 14.268 18.7481 14.5712C19.0507 14.8745 19.2882 15.2363 19.4462 15.6345C19.6041 16.0326 19.6793 16.4588 19.667 16.887C19.6546 17.3152 19.5551 17.7364 19.3745 18.1248C19.1939 18.5133 18.936 18.8608 18.6166 19.1462L18.66 19.1027Z" stroke="#AFCC46" stroke-width="1.15" stroke-linecap="round" stroke-linejoin="round"/>
<path d="M26.0372 7.17337C25.8265 6.964 25.5751 6.80006 25.2985 6.69168C25.0219 6.58329 24.7261 6.53277 24.4292 6.54321C24.1326 6.55128 23.8407 6.62003 23.5716 6.74522C23.3025 6.87042 23.062 7.0494 22.8647 7.27115L17.0195 13.7899C17.6463 13.9141 18.2194 14.2291 18.6601 14.6917C19.0565 15.0865 19.3446 15.5766 19.4967 16.115L25.9394 10.3458C26.1599 10.1498 26.3381 9.91102 26.4632 9.64391C26.5884 9.3768 26.6578 9.08702 26.6674 8.7922C26.6793 8.49354 26.6295 8.19562 26.5211 7.91707C26.4127 7.63853 26.2479 7.38535 26.0372 7.17337Z" stroke="#AFCC46" stroke-width="1.15" stroke-linecap="round" stroke-linejoin="round"/>
</g>
<defs>
<clipPath id="clip0_82_4051">
<rect width="15.2105" height="15.2105" fill="white" transform="translate(12 6)"/>
</clipPath>
</defs>
</svg>
