<svg width="82" height="27" viewBox="0 0 82 27" fill="none" xmlns="http://www.w3.org/2000/svg">
<rect opacity="0.2" width="82" height="27" rx="13.5" fill="#B2CFDE"/>
<path d="M38.7234 9.89062V17H37.2634V9.89062H38.7234ZM40.9109 9.89062V11.0381H35.1101V9.89062H40.9109ZM47.2164 15.8574V17H43.4322V15.8574H47.2164ZM43.9107 9.89062V17H42.4458V9.89062H43.9107ZM46.7232 12.7861V13.8994H43.4322V12.7861L46.7232 12.7861ZM47.2115 9.89063V11.0381L43.4322 11.0381V9.89062L47.2115 9.89063ZM51.6615 11.1064L49.7279 17H48.1703L50.8119 9.89063H51.8031L51.6615 11.1064ZM53.2679 17L51.3294 11.1064L51.1732 9.89063H52.1742L54.8304 17H53.2679ZM53.18 14.3535V15.501L49.4251 15.501V14.3535L53.18 14.3535ZM58.7628 9.89063V17H57.3029V9.89063H58.7628ZM60.9503 9.89063V11.0381H55.1496V9.89063H60.9503ZM65.2539 14.4658L63.4423 14.4658V13.3232L65.2539 13.3232C65.5338 13.3232 65.7617 13.2777 65.9375 13.1865C66.1132 13.0921 66.2418 12.9619 66.3232 12.7959C66.4046 12.6299 66.4453 12.4427 66.4453 12.2344C66.4453 12.0228 66.4046 11.8258 66.3232 11.6436C66.2418 11.4613 66.1132 11.3148 65.9375 11.2041C65.7617 11.0934 65.5338 11.0381 65.2539 11.0381H63.9501V17H62.4853V9.89063H65.2539C65.8105 9.89063 66.2874 9.99154 66.6845 10.1934C67.0849 10.3919 67.3909 10.667 67.6025 11.0186C67.8141 11.3701 67.9199 11.7721 67.9199 12.2246C67.9199 12.6836 67.8141 13.0807 67.6025 13.416C67.3909 13.7513 67.0849 14.0101 66.6845 14.1924C66.2874 14.3747 65.8105 14.4658 65.2539 14.4658Z" fill="#B2CFDE"/>
<path d="M16.1723 14.3842C15.413 13.4217 15.0001 12.2316 15 11.0057V7.99647C16.2653 7.34172 17.6692 7 19.0938 7C20.5185 7 21.9224 7.34172 23.1877 7.99647" stroke="#B2CFDE" stroke-width="1.2" stroke-linecap="round" stroke-linejoin="round"/>
<path d="M21.7296 18.9441C21.4065 19.0171 21.0708 19.0125 20.7499 18.9307C20.429 18.8489 20.132 18.6921 19.8834 18.4734C19.0196 17.7287 18.38 16.7585 18.036 15.6712C17.6921 14.5839 17.6573 13.4224 17.9357 12.3164L18.6096 9.62106C20.0731 9.24989 21.6059 9.24788 23.0704 9.61521C24.5348 9.98254 25.8852 10.7077 27.0003 11.7257L26.3265 14.4118C26.0548 15.5188 25.4813 16.5286 24.6696 17.3288C23.858 18.129 22.8402 18.6882 21.7296 18.9441Z" stroke="#B2CFDE" stroke-width="1.2" stroke-linecap="round" stroke-linejoin="round"/>
<path d="M19.7168 12.5472C19.8332 12.4253 19.9808 12.3377 20.1436 12.2938C20.3063 12.2498 20.4779 12.2513 20.6399 12.298C20.7984 12.3353 20.9442 12.4138 21.0626 12.5257C21.1809 12.6375 21.2676 12.7787 21.3137 12.9349" stroke="#B2CFDE" stroke-width="1.2" stroke-linecap="round" stroke-linejoin="round"/>
<path d="M23.3721 13.4611C23.4848 13.3399 23.628 13.2513 23.7867 13.2045C23.9454 13.1577 24.1138 13.1544 24.2742 13.195C24.4346 13.2356 24.5812 13.3185 24.6985 13.4352C24.8159 13.5518 24.8997 13.6978 24.9413 13.858" stroke="#B2CFDE" stroke-width="1.2" stroke-linecap="round" stroke-linejoin="round"/>
</svg>
