<svg width="41" height="41" viewBox="0 0 41 41" fill="none" xmlns="http://www.w3.org/2000/svg">
<path d="M30.0987 31.1253C24.886 37.3948 16.9804 36.3479 10.7173 31.1252C3.30024 24.9404 4.60977 16.6701 9.82245 10.4006C15.0351 4.13104 22.3424 3.84577 28.612 9.05845C34.8815 14.2711 35.3114 24.8557 30.0987 31.1253Z" fill="#B2CFDE"/>
<g clip-path="url(#clip0_56_569)">
<path d="M13.8941 23.0545C12.8427 21.7218 12.2709 20.0738 12.2708 18.3763V14.2094C14.0228 13.3028 15.9668 12.8296 17.9395 12.8296C19.9123 12.8296 21.8563 13.3028 23.6083 14.2094" stroke="black" stroke-width="1.21429" stroke-linecap="round" stroke-linejoin="round"/>
<path d="M21.5888 29.3687C21.1414 29.4698 20.6765 29.4635 20.2322 29.3501C19.7878 29.2368 19.3766 29.0198 19.0324 28.7169C17.8363 27.6858 16.9506 26.3423 16.4743 24.8367C15.998 23.3311 15.9499 21.7227 16.3354 20.1913L17.2685 16.459C19.295 15.945 21.4175 15.9422 23.4454 16.4509C25.4733 16.9595 27.3432 17.9637 28.8872 19.3732L27.9542 23.0928C27.578 24.6256 26.7838 26.0238 25.6599 27.1319C24.5361 28.24 23.1267 29.0143 21.5888 29.3687Z" stroke="black" stroke-width="1.21429" stroke-linecap="round" stroke-linejoin="round"/>
<path d="M18.8022 20.511C18.9635 20.3422 19.1679 20.2209 19.3932 20.16C19.6185 20.0992 19.8562 20.1012 20.0804 20.1659C20.2999 20.2175 20.5019 20.3263 20.6658 20.4812C20.8296 20.6361 20.9496 20.8316 21.0135 21.0478" stroke="black" stroke-width="1.21429" stroke-linecap="round" stroke-linejoin="round"/>
<path d="M23.8638 21.7764C24.0199 21.6086 24.2182 21.4859 24.4379 21.4211C24.6577 21.3563 24.8908 21.3517 25.1129 21.4079C25.3351 21.4641 25.538 21.579 25.7005 21.7405C25.863 21.902 25.9791 22.1042 26.0367 22.326" stroke="black" stroke-width="1.21429" stroke-linecap="round" stroke-linejoin="round"/>
</g>
<defs>
<clipPath id="clip0_56_569">
<rect width="17.8947" height="17.8947" fill="white" transform="translate(11.6316 12.1899)"/>
</clipPath>
</defs>
</svg>
