<svg width="35" height="35" viewBox="0 0 35 35" fill="none" xmlns="http://www.w3.org/2000/svg">
<path d="M13.5542 31.4231C5.55756 29.8317 3.5123 23.7932 3.16929 14.6021C2.80913 4.95145 12.5333 1.41293 20.53 3.00432C28.5266 4.59571 33.4877 9.11062 31.8963 17.1073C30.3049 25.1039 21.5509 33.0144 13.5542 31.4231Z" fill="#B29DC3"/>
<g clip-path="url(#clip0_56_561)">
<path d="M10.6145 23.598C11.8851 23.598 12.9152 22.5679 12.9152 21.2972C12.9152 20.0265 11.8851 18.9965 10.6145 18.9965C9.3438 18.9965 8.31372 20.0265 8.31372 21.2972C8.31372 22.5679 9.3438 23.598 10.6145 23.598Z" stroke="black" stroke-width="1.28571" stroke-linecap="round" stroke-linejoin="round"/>
<path d="M20.9677 20.722C22.2384 20.722 23.2685 19.6919 23.2685 18.4212C23.2685 17.1506 22.2384 16.1205 20.9677 16.1205C19.6971 16.1205 18.667 17.1506 18.667 18.4212C18.667 19.6919 19.6971 20.722 20.9677 20.722Z" stroke="black" stroke-width="1.28571" stroke-linecap="round" stroke-linejoin="round"/>
<path d="M23.2684 18.4212V9.40229C23.2679 9.31427 23.2472 9.22755 23.208 9.14879C23.1687 9.07002 23.1118 9.00133 23.0418 8.94799C22.9718 8.89465 22.8905 8.85808 22.8041 8.84111C22.7178 8.82414 22.6287 8.82722 22.5437 8.85011L13.3407 11.4039C13.2191 11.4367 13.1116 11.5084 13.0347 11.6082C12.9578 11.7079 12.9157 11.8302 12.915 11.9561V21.2972" stroke="black" stroke-width="1.28571" stroke-linecap="round" stroke-linejoin="round"/>
<path d="M12.915 14.9701L23.2684 12.0941" stroke="black" stroke-width="1.28571" stroke-linecap="round" stroke-linejoin="round"/>
</g>
<defs>
<clipPath id="clip0_56_561">
<rect width="16.1053" height="16.1053" fill="white" transform="translate(7.73853 8.15991)"/>
</clipPath>
</defs>
</svg>
