<svg width="213" height="74" viewBox="0 0 213 74" fill="none" xmlns="http://www.w3.org/2000/svg">
<g clip-path="url(#clip0_70_1954)">
<path fill-rule="evenodd" clip-rule="evenodd" d="M111.464 17.288H114.37L113.247 13.4861H112.588L111.464 17.288ZM114.969 19.2844H110.897L110.031 22.2444H107.829L111.226 11.2924H114.683L118.098 22.2444H115.835L114.969 19.2844ZM121.878 13.3332V22.2444H119.608V11.2924H127.462V13.3332H121.878ZM137.429 20.202V22.2444H129.274V11.2924H137.263V13.3332H131.527V15.6337H135.991V17.6268H131.527V20.202H137.429ZM148.905 11.2924V22.2444H146.633V17.6564H141.813V22.2444H139.543V11.2924H141.813V15.5581H146.633V11.2924H148.905ZM159.174 13.3036H155.782V22.2444H153.505V13.3036H150.113V11.2924H159.174V13.3036ZM169.745 18.8832C169.412 21.0423 167.766 22.5486 165.245 22.5486C161.951 22.5486 160.081 20.2365 160.081 16.9197C160.081 13.6045 161.967 11.2924 165.245 11.2924C167.646 11.2924 169.262 12.6622 169.639 14.6536H167.284C167.026 13.787 166.317 13.3151 165.245 13.3151C163.311 13.3151 162.391 14.897 162.391 16.9197C162.391 18.9276 163.311 20.526 165.245 20.526C166.408 20.526 167.192 19.9175 167.404 18.8815L169.745 18.8832ZM179.712 13.3036H176.32V22.2444H174.043V13.3036H170.651V11.2924H179.712V13.3036ZM187.934 18.9456C187.934 18.0248 187.365 17.5495 186.197 17.5495H183.508V20.2957H186.166C187.305 20.2957 187.934 19.8649 187.934 18.9473V18.9456ZM187.626 14.407C187.626 13.5963 187.102 13.1967 186.073 13.1967H183.508V15.6387H186.088C187.12 15.6354 187.626 15.2374 187.626 14.4086V14.407ZM190.284 19.0673C190.284 20.8927 189.1 22.2444 186.506 22.2444H181.222V11.2924H186.365C188.794 11.2924 189.976 12.6277 189.976 14.1916C189.976 15.1897 189.531 16.0481 188.825 16.4V16.7076C189.607 17.0299 190.284 17.9787 190.284 19.0673ZM200.043 16.9213C200.043 14.9135 199.115 13.3151 197.079 13.3151C195.059 13.3151 194.116 14.9135 194.116 16.9197C194.116 18.9276 195.059 20.526 197.079 20.526C199.115 20.526 200.043 18.9276 200.043 16.9197V16.9213ZM202.365 16.9213C202.365 20.1148 200.511 22.5486 197.079 22.5486C193.645 22.5486 191.794 20.1148 191.794 16.9197C191.794 13.7262 193.645 11.2924 197.079 11.2924C200.511 11.2924 202.365 13.7262 202.365 16.9197V16.9213ZM110.825 31.3694V39.0227H111.123L115.168 31.3694H118.098V42.3214H115.991V34.5004H115.691L111.557 42.3214H108.734V31.3694H110.825ZM130.179 31.3694V42.3214H127.907V37.7334H123.087V42.3214H120.815V31.3694H123.087V35.6351H127.907V31.3694H130.179ZM141.958 31.3694V42.3214H139.688V37.7334H134.867V42.3214H132.596V31.3694H134.867V35.6351H139.688V31.3694H141.958ZM152.018 36.9967C152.018 34.9905 151.092 33.3921 149.057 33.3921C147.034 33.3921 146.093 34.9888 146.093 36.9967C146.093 39.0046 147.036 40.6013 149.057 40.6013C151.092 40.6013 152.018 39.0062 152.018 36.9967ZM154.342 36.9967C154.342 40.1919 152.488 42.6256 149.057 42.6256C145.622 42.6256 143.77 40.1919 143.77 36.9967C143.77 33.8032 145.622 31.3694 149.057 31.3694C152.488 31.3694 154.342 33.8032 154.342 36.9967ZM163.166 39.0227C163.166 38.1018 162.598 37.6265 161.429 37.6265H158.742V40.3728H161.4C162.538 40.3728 163.166 39.9403 163.166 39.0227ZM162.858 34.484C162.858 33.6733 162.336 33.2737 161.305 33.2737H158.742V35.714H161.322C162.354 35.7108 162.858 35.3128 162.858 34.484ZM165.516 39.1444C165.516 40.9697 164.332 42.3214 161.737 42.3214H156.454V31.3694H161.599C164.027 31.3694 165.208 32.7047 165.208 34.2686C165.208 35.2668 164.764 36.1252 164.058 36.4771V36.7846C164.839 37.1069 165.516 38.0557 165.516 39.1444ZM170.059 37.3651H172.965L171.842 33.5631H171.183L170.059 37.3651ZM173.562 39.3614H169.492L168.624 42.3214H166.423L169.821 31.3694H173.278L176.692 42.3214H174.43L173.562 39.3614ZM186.595 42.3642H178.202V31.3694H180.439V40.3152H185.004V31.3694H187.241V40.3152H188.772V45.0594H186.595V42.3642ZM192.675 31.3694V39.0227H192.975L197.016 31.3694H199.948V42.3214H197.843V34.5004H197.544L193.409 42.3214H190.586V31.3694H192.675ZM210.181 28.6298C210.06 30.0687 209.04 30.9632 207.339 30.9632C205.641 30.9632 204.617 30.0687 204.499 28.6298H206.151C206.212 29.1445 206.602 29.5704 207.339 29.5704C208.061 29.5704 208.449 29.1626 208.526 28.6298H210.181ZM204.755 31.5076V39.0638H205.056L209.1 31.5076H212.029V42.3198H209.923V34.5958H209.622L205.489 42.3198H202.666V31.5076H204.755ZM108.734 51.7556H112.283L114.05 56.1265H114.352L116.12 51.7556H119.608V62.7076H117.49V54.1647H117.185L115.207 59.0405H113.136L111.157 54.1647H110.851V62.706H108.734V51.7556ZM129.668 57.0787C129.668 55.0724 128.742 53.474 126.707 53.474C124.685 53.474 123.744 55.0708 123.744 57.0787C123.744 59.0865 124.686 60.6833 126.707 60.6833C128.742 60.6833 129.668 59.0882 129.668 57.0787ZM131.992 57.0787C131.992 60.2738 130.136 62.706 126.707 62.706C123.272 62.706 121.42 60.2722 121.42 57.0787C121.42 53.8852 123.272 51.4514 126.707 51.4514C130.136 51.4514 131.991 53.8852 131.991 57.0787H131.992ZM143.166 59.0421C142.835 61.2013 141.188 62.706 138.665 62.706C135.374 62.706 133.502 60.3955 133.502 57.0787C133.502 53.7635 135.389 51.4514 138.667 51.4514C141.067 51.4514 142.684 52.8196 143.062 54.8126H140.705C140.448 53.946 139.738 53.474 138.667 53.474C136.733 53.474 135.813 55.056 135.813 57.0787C135.813 59.0865 136.733 60.6833 138.667 60.6833C139.83 60.6833 140.614 60.0748 140.826 59.0421H143.166ZM145.28 51.7556H147.561V56.0344H150.082L152.152 51.7556H154.503L151.998 57.0787L154.645 62.706H152.289L150.104 58.1032H147.563V62.7076H145.28V51.7556ZM162.866 59.4088C162.866 58.488 162.297 58.0111 161.129 58.0111H158.44V60.7589H161.098C162.236 60.7589 162.866 60.3281 162.866 59.4088ZM162.556 54.8702C162.556 54.0578 162.034 53.6599 161.005 53.6599H158.44V56.0986H161.02C162.052 56.0953 162.556 55.6973 162.556 54.8702ZM165.214 59.5305C165.214 61.3559 164.03 62.706 161.436 62.706H156.154V51.754H161.297C163.725 51.754 164.908 53.0909 164.908 54.6548C164.908 55.6513 164.462 56.5097 163.756 56.8632V57.1691C164.539 57.4931 165.214 58.4419 165.214 59.5305ZM176.833 62.706H179.108V51.754H176.833V62.706ZM173.288 59.0865C173.288 58.0588 172.739 57.4766 171.225 57.4766H169.301V60.6997H171.225C172.739 60.6997 173.288 60.1291 173.288 59.0865ZM167.026 62.706V51.754H169.301V55.4671H171.574C174.126 55.4671 175.622 56.832 175.622 59.0717C175.622 61.3411 174.125 62.706 171.574 62.706H167.026ZM18.67 64.5231C18.1971 65.1151 17.473 65.314 17.0458 64.9704C16.6707 64.6661 16.6593 64.0363 16.9854 63.4871C16.7156 63.5502 16.4779 63.7104 16.3168 63.9376C15.9124 64.5264 16.1472 65.4028 16.8468 65.8945C17.5481 66.3912 18.445 66.3106 18.851 65.7252C19.1332 65.3173 19.1005 64.7681 18.8184 64.306C18.776 64.3784 18.7271 64.454 18.67 64.5231ZM42.6391 22.7706C41.796 21.9566 42.0455 20.3484 42.0455 20.3484C41.69 20.6493 41.2366 22.7492 41.9884 23.8132C42.8592 25.0465 43.6387 25.2176 44.3286 26.5611C44.4134 26.3703 44.3057 25.8901 44.1263 25.53C43.8556 24.9824 43.7513 24.5285 44.3873 24.3411C46.1942 23.8132 47.8722 26.4377 48.8588 26.3933C50.2385 26.3341 50.5467 25.086 50.607 25.0268C50.6657 24.966 49.8813 25.5662 48.9926 25.4593C47.5868 25.2883 46.9345 23.6964 45.3543 23.3708C44.3432 23.1636 43.4871 23.5879 42.6391 22.7706ZM41.6802 52.0105C41.2105 52.7028 41.5693 53.6812 42.8119 54.0463C43.9323 54.3752 44.6743 54.7189 45.2222 55.2764C46.0278 56.0871 46.4045 56.189 46.597 56.1841L12.1877 8.07915L11.7311 8.41297L40.4212 48.5276C40.7506 48.988 42.0944 51.3955 41.6802 52.0105ZM41.5465 54.2025C40.237 54.2354 38.7366 54.7057 37.2249 53.2948C35.2647 51.4695 33.223 52.637 33.223 52.637C33.223 52.637 34.513 53.9328 33.7938 54.4673C32.6262 55.3388 33.4856 56.3584 33.3828 56.7596C33.2768 57.156 32.101 57.2382 30.1311 56.3321C29.2514 55.9195 28.2693 55.782 27.3115 55.9374C26.801 56.0229 26.9723 56.3962 27.0848 56.5031C27.0848 56.5031 27.9149 57.2678 28.2361 57.4799C28.497 57.646 29.1559 58.1985 29.4021 58.0193C29.6418 57.8466 29.1184 56.8682 29.1184 56.8682C29.1184 56.8682 33.0012 58.1755 34.3597 58.1755C35.9366 58.1755 34.4591 55.528 35.7001 55.403C36.3264 55.3372 37.1091 56.3239 38.3958 56.5097C39.296 56.6412 40.1603 56.2564 41.0442 56.0328C41.9835 55.7976 42.339 56.9718 42.4695 58.0061C42.4923 58.1755 42.5266 58.6031 42.7076 58.9172C43.0174 57.4256 43.4316 54.1581 41.5465 54.2025ZM51.3718 57.2645C50.8598 55.8749 49.883 56.4752 49.4459 56.3206C49.0072 56.1676 48.4414 55.6184 48.2587 54.1417C48.0761 52.665 46.8318 53.4625 46.8318 53.4625C46.8318 53.4625 48.2718 56.3748 48.8507 57.9256C49.4329 59.4746 49.9221 58.2742 50.6298 59.1244C51.3425 59.9745 51.261 64.3422 50.8565 65.7482C50.393 67.3537 49.443 68.7728 48.1397 69.8067C49.141 69.6899 51.0098 67.7084 51.5333 66.4092C52.1367 64.9177 51.791 63.5413 51.791 63.5413L52.6324 63.4657L52.1187 62.1123L52.9325 61.9873C52.9374 61.9873 51.8806 58.6491 51.3718 57.2645ZM17.915 60.0272C16.8587 59.7469 15.7575 59.6826 14.6763 59.838C13.5413 60.0091 12.6264 60.3314 11.6757 60.282C10.7314 60.2607 9.84593 59.8874 9.26864 59.1967C9.00772 58.8941 8.82181 58.5389 8.68482 58.1607C9.14144 57.2102 10.0286 56.2449 11.6104 55.3586C17.1387 52.2588 15.309 48.7644 14.9649 44.7124C14.7904 42.6569 15.2046 40.7822 16.2532 39.8317C17.7323 38.4866 20.2193 38.6527 20.2193 38.6527C19.9371 38.2859 16.6055 37.0839 14.0615 37.8272C11.3381 38.6264 10.8325 40.6145 10.3629 42.0287C9.95846 43.2555 9.42846 44.6976 7.01981 45.7172C2.97061 47.4307 3.24295 50.644 3.24295 50.644C3.24295 50.644 1.77525 47.4702 5.7103 44.7881C10.7086 41.3841 8.7843 38.7661 10.4558 37.2056C11.7605 35.9887 13.3227 36.1827 15.7069 36.8388C15.2797 36.3291 8.94412 33.6486 8.21027 39.3384C7.58732 44.1764 3.00812 43.5021 2.21067 48.054C1.65295 51.282 4.68129 53.9871 4.68129 53.9871C4.68129 53.9871 2.25959 49.0982 7.02144 47.1216C10.3156 45.7567 12.191 44.1813 12.6802 42.6256C12.6525 43.1239 12.6574 43.6518 12.6704 44.2306C12.7226 46.4194 13.7549 48.128 13.4369 51.2064C13.2624 52.9001 10.1933 54.5906 8.48098 56.3304C8.53969 55.551 8.74842 54.7929 9.13492 54.168C9.56707 53.502 10.2765 52.7867 10.5863 51.9973C10.8421 51.4221 10.9575 50.7935 10.9229 50.1641C10.8883 49.5346 10.7046 48.9227 10.3873 48.3796C10.3091 48.4124 10.2373 48.442 10.1656 48.4651C10.5129 49.2856 10.7053 50.5305 10.0351 51.7375C9.70406 52.4315 9.11372 52.9215 8.48587 53.7322C7.87506 54.5862 7.5212 55.5996 7.46664 56.6511C7.45033 56.9997 7.48458 57.3582 7.54329 57.72C6.84205 59.5684 7.64113 61.9561 8.28039 63.0612C9.04522 64.3767 9.76439 65.3387 9.38932 66.8648C9.01424 68.3941 10.3303 67.8646 11.2614 67.8794L12.1404 67.8843C12.7536 67.8827 13.0047 67.4337 12.6297 66.8269C11.9773 65.7794 10.9434 64.2287 10.1183 63.5644C9.38279 62.9707 8.17929 61.4101 8.29181 59.6012C9.3779 60.9036 10.601 61.3131 11.6104 61.4068C12.796 61.5121 13.9163 61.0615 14.8279 60.9168C15.7673 60.7602 16.728 60.791 17.6557 61.0072C18.5078 61.2122 19.3 61.6167 19.9681 62.188C20.5992 62.7306 20.9466 63.4542 21.1292 64.1531C21.4717 65.5278 20.534 66.8171 19.7773 67.4929C19.823 67.5456 19.8833 67.5949 19.9339 67.6409C21.2581 66.8368 21.9723 65.4341 21.713 63.76C21.4717 62.1123 19.9942 60.5353 17.915 60.0272ZM16.837 34.2801C18.4613 36.01 20.2078 35.3144 20.9873 35.4082C21.7669 35.4986 22.667 37.5164 22.1925 39.4716C21.7196 41.4285 21.5304 41.0897 21.2059 42.3165C20.7982 43.8623 22.698 44.969 22.2577 46.3947C22.1354 46.7894 21.8631 47.3584 22.1925 47.8007C22.7045 48.4963 23.5362 47.5804 24.5848 47.7366C25.243 47.8257 25.912 47.6933 26.4879 47.36C26.364 46.7565 23.9977 47.1265 23.4677 46.1513C23.2345 45.7221 22.6149 41.2772 23.988 39.2907C25.2485 37.4687 24.0777 36.8997 23.215 35.4279C24.5269 34.7257 25.8485 34.0421 27.1794 33.3773C28.0926 34.4347 28.7351 35.3473 29.2896 36.6234C29.5831 37.2565 29.7837 37.939 29.7609 38.6231C29.7772 39.3187 29.5212 40.0044 29.0857 40.6227C29.663 40.5323 30.1898 39.493 30.3496 38.6905C30.5013 37.8864 30.3855 37.0592 30.1702 36.2945C29.3662 33.8147 27.4958 32.042 27.4958 32.042C27.4958 32.042 24.9681 32.9152 22.623 34.1995C21.8826 32.7984 21.139 33.0484 20.2144 33.1273C19.2979 33.2096 18.745 32.2327 18.745 32.2327C19.4561 32.463 20.4443 32.5008 21.7701 31.9746C24.7414 30.7906 23.6129 28.314 23.6129 28.314C23.6129 28.314 23.6749 30.1114 21.8989 30.3663C20.7949 30.5225 17.8954 29.799 17.8954 29.799C17.8954 29.799 20.2176 29.526 20.6922 28.1776C21.3347 26.3308 23.1791 27.0577 23.1791 27.0577C23.1791 27.0577 22.1957 25.8901 20.6791 26.8028C19.7545 27.3652 18.2199 27.5444 16.3364 26.5824C14.4577 25.6237 13.7761 27.2156 13.3945 27.255C13.0161 27.2978 12.7193 26.6712 12.9313 26.0168C13.1433 25.3606 15.3041 24.744 18.5575 24.619C20.7036 24.5368 21.7571 24.961 22.2235 25.262C22.2284 25.0844 21.6494 24.2819 19.8801 23.8444C18.1107 23.4037 18.2265 22.6736 18.3096 21.4172C18.3912 20.1592 16.5794 20.6608 16.1391 20.5029C15.6988 20.3451 16.1065 19.3568 16.1065 19.3568C15.4753 19.5409 14.991 20.0573 15.0138 20.8269C15.0269 21.3416 15.5161 21.7116 16.0021 21.9533C16.4897 22.1967 16.5696 22.6374 15.6922 23.1521C14.9861 23.5665 13.9701 24.1059 12.6101 24.6946C9.58501 26.002 13.3635 28.2548 12.0344 28.9455C10.7005 29.6362 10.3759 30.5373 10.3009 31.0307C10.1378 32.1489 10.8782 32.981 10.8782 32.981C13.4793 31.5569 15.2112 32.5534 16.837 34.2801ZM32.2315 30.2841C32.2315 29.1626 32.5185 28.6232 32.8251 28.61C33.7612 28.5722 33.9618 29.9092 33.9748 30.2726C34.0139 31.3382 33.2344 31.8496 33.2344 31.8496C33.903 31.9072 34.4314 30.9731 34.5178 30.3795C34.645 29.4997 34.4901 29.1955 34.1819 28.6133C34.1819 28.6133 36.1405 30.5242 35.9317 32.6455C35.6953 35.0497 33.0078 36.311 33.0078 36.311C33.8036 36.5987 36.1062 36.3652 37.5804 34.4708C38.3942 33.4266 38.7497 31.8364 37.7631 29.3287C36.8694 27.0528 35.1653 25.1255 36.977 20.7628C38.7448 16.5102 43.4186 15.9544 46.23 17.9754C46.3901 18.0866 46.5121 18.2452 46.579 18.4293C46.7617 18.9325 45.4489 19.5903 46.0246 19.8928C46.4192 20.105 46.9378 20.1592 47.3846 20.5013C47.7956 20.8137 47.8771 21.0818 48.0858 21.2758C48.2424 21.4238 48.3125 21.4534 48.4642 21.4534C47.1922 19.952 46.9802 18.2402 46.7747 16.4313C45.7767 16.1731 44.1932 15.3558 42.6277 15.1716C41.6459 15.0549 39.2715 14.8987 36.8906 16.0794C34.2064 17.4064 31.3688 19.9932 31.3688 25.9855C31.3672 28.564 32.2315 30.4304 32.2315 30.2841ZM2.37212 44.2355C3.75338 43.8573 3.75338 42.8213 3.77132 42.6092C3.9931 42.9052 4.06975 43.2292 4.07464 43.6501C4.68618 42.8476 4.53941 41.4581 3.04236 40.6276C3.04236 40.6276 3.12716 42.453 1.96932 43.0976C0.762547 43.7669 0.573378 44.1944 0.506516 44.8555C0.47043 45.1775 0.544043 45.5022 0.715255 45.7764C0.871809 46.0395 1.13762 46.222 1.38713 46.2845C1.02184 45.7896 0.950085 44.6236 2.37049 44.2355H2.37212ZM31.2922 18.7171C27.9034 18.9111 26.7195 17.6876 24.4038 16.5628C22.0816 15.4331 20.0855 16.2586 19.7365 16.7898C20.8145 16.8572 22.0408 17.2897 24.3663 18.7615C29.058 21.733 31.2922 18.7171 31.2922 18.7171ZM29.7739 11.4684C29.2814 11.5999 28.0894 11.7956 28.6454 14.5681C29.2048 17.3423 30.6904 16.6697 31.0883 16.3145C31.0883 16.3145 29.0694 16.1024 29.0107 13.6999C28.9537 11.2891 31.7097 11.7331 31.7097 11.7331C31.545 11.5456 30.5534 11.2579 29.7739 11.4684ZM59.966 46.7302C59.299 44.3375 57.1725 39.4568 55.7178 37.2302C54.255 35.0036 53.5081 36.6004 52.926 37.1036C52.3421 37.6068 50.6331 40.5076 49.883 36.7698C49.1328 33.027 45.3021 29.7875 45.3021 29.7875C46.093 32.6044 45.881 34.6665 45.6772 36.4738C45.4701 38.2794 45.9251 38.9108 45.9251 40.0011C45.9251 41.0947 42.6798 41.81 42.5086 42.6503C42.3439 43.4923 47.3422 46.9423 52.1008 43.484C53.5326 42.4431 54.423 46.4786 54.878 47.5705C55.3395 48.6657 54.4214 49.0012 55.5042 50.2624C56.5887 51.5237 55.7537 52.586 55.7537 53.3721C55.7537 54.1088 57.9014 55.9604 58.2961 55.5559C58.9875 54.8603 57.4204 50.7212 56.7958 49.2922C56.1712 47.8616 55.1715 43.2374 54.467 41.9761C54.0593 41.2558 51.9687 41.7672 51.9687 41.7672L51.8219 41.2081C51.8219 41.2081 52.1122 40.8332 52.3813 40.5471C54.5502 38.2761 54.3822 39.2019 56.6327 41.9777C58.8799 44.7486 56.1712 45.8455 58.1281 47.2745C60.0867 48.7051 60.6314 49.1245 59.966 46.7302ZM24.2994 9.53284C24.2994 9.53284 24.7153 9.67591 25.5144 9.694C26.3134 9.71044 26.7081 8.96386 26.7081 8.96386C24.7642 8.76817 24.1967 8.07586 24.1967 8.07586C24.1967 8.07586 26.0493 7.98048 26.987 7.85551C27.9246 7.72888 29.6337 7.2668 29.6337 7.2668C29.6337 7.2668 29.5685 8.81257 29.557 9.71044C29.5489 10.6067 30.6921 10.4093 31.0737 10.2876C31.5547 10.1347 31.6281 8.3472 31.7097 6.81622C31.7684 5.65853 30.9187 5.64866 30.4328 5.85422C29.7152 6.15515 28.3568 6.86062 26.8858 7.31284C25.4165 7.76506 23.1139 7.43617 23.1139 7.43617L22.9883 7.918L24.924 9.11844L24.2994 9.53284ZM27.4843 16.8736L28.0094 16.6467C28.0094 16.6467 27.6083 15.4627 27.5789 14.4136C27.5561 13.3611 27.9834 11.0359 27.9834 11.0359H27.486C27.486 11.0359 27.2609 12.7444 26.9674 14.2409C26.6771 15.7373 25.8992 15.4446 25.5193 15.415C25.1377 15.3871 22.1142 14.948 22.1142 14.948V15.3969L23.8347 15.6469C25.3643 15.8689 27.486 16.872 27.486 16.872L27.4843 16.8736ZM29.3695 23.4596C28.122 24.2654 26.0737 23.8675 26.0737 23.8675C26.3477 24.2556 27.835 24.7176 28.5835 24.7061C29.2325 24.6913 29.8066 24.4332 30.317 23.8675C31.4292 22.6407 30.9758 20.5967 30.7051 20.3401C30.7084 20.3401 30.5861 22.6752 29.3695 23.4596ZM26.4847 59.8479C23.6194 56.9636 24.6647 57.2546 26.4847 54.6811C27.8317 52.7752 34.4053 51.0929 37.7174 50.3529L37.6522 50.047C35.9725 50.1227 33.4578 50.2115 30.9318 50.2082C26.6037 50.2049 24.8572 48.544 23.7352 48.7528C19.4316 49.5652 22.4909 54.5413 17.4437 53.8358C12.3948 53.1336 12.5628 58.4107 12.5628 58.4107C13.9946 55.4753 15.4753 55.8881 16.6153 55.8388C17.9362 55.7812 19.2245 56.7646 21.077 55.1925C21.4847 54.8504 23.3275 51.8395 23.0633 53.3441C22.9084 54.2223 22.1533 55.227 21.5516 55.916C21.1211 56.4094 20.8716 56.786 21.7473 57.2826L22.9981 58.0094C25.0431 59.1934 24.7039 60.5402 23.3732 60.4728C22.4241 60.4202 21.3037 59.9515 20.3644 59.8528C19.9828 59.815 19.5506 59.9729 20.1524 60.264C20.4704 60.4152 20.8275 60.6356 21.1423 60.9497C22.6409 62.4626 20.8487 61.8656 25.1409 61.6321C26.0541 61.5795 26.7032 61.494 27.1647 61.3986C28.8721 61.022 26.8614 60.2245 26.4847 59.8479ZM48.5604 62.3639C48.2147 61.8212 47.9358 61.0615 47.6146 60.3824C46.9296 58.9369 47.6015 59.2148 47.1791 58.3827C46.7062 57.4618 46.4681 58.3646 45.276 56.5245C45.0428 56.1578 44.5683 56.3189 44.5112 57.1987C44.4509 58.0785 45.9137 58.9089 46.579 61.0401C47.2509 63.1779 47.8021 63.4246 47.2574 64.7336C46.7193 66.0458 44.0644 65.9669 44.0644 65.9669C46.1354 68.1408 50.3526 65.1743 48.5604 62.3639ZM70.884 72.4L70.0197 72.0842L95.4271 1.60168L96.2865 1.91742L70.884 72.4Z" fill="white"/>
</g>
<defs>
<clipPath id="clip0_70_1954">
<rect width="212" height="74" fill="white" transform="translate(0.5)"/>
</clipPath>
</defs>
</svg>
