<svg width="13" height="9" viewBox="0 0 13 9" fill="none" xmlns="http://www.w3.org/2000/svg">
<path d="M6.50064 9.00073L4.59464 5.83902H4.56662L3.90242 7.75187H4.35774C4.66596 7.75187 4.5819 7.75188 4.60483 8.25309V8.54455C4.58827 8.91323 4.65068 8.91323 4.41378 8.91323H0.175761C0.143822 8.91978 0.110904 8.91978 0.0789648 8.91323C0.0477607 8.89778 0.00509404 8.86304 0.00445722 8.83602C-0.000637323 8.50273 0.00445772 8.16945 0 7.83552C0 7.75959 0.0407556 7.75509 0.0967956 7.75509C0.329234 7.75509 0.561672 7.75509 0.794111 7.75509C0.824045 7.75913 0.854401 7.75184 0.879328 7.73461C0.904255 7.71738 0.92199 7.69145 0.929117 7.6618C1.26026 6.81207 1.59332 5.96277 1.92828 5.1139C2.25433 4.28519 2.58017 3.45648 2.9058 2.62777C3.23143 1.79906 3.55769 0.967346 3.88459 0.13263C3.89796 0.0991732 3.91261 0.0682895 3.93935 0.00394868L6.50064 4.52904C7.36161 3.00867 8.20476 1.51918 9.06383 0.000732422C9.14279 0.200189 9.20966 0.367475 9.27589 0.535405C9.6635 1.52196 10.0509 2.50681 10.4381 3.48994C10.8176 4.45805 11.1961 5.4266 11.5735 6.39557C11.7397 6.82022 11.9104 7.24294 12.0747 7.66823C12.0818 7.69597 12.0986 7.72016 12.122 7.73627C12.1455 7.75238 12.1739 7.7593 12.2021 7.75573C12.4307 7.75573 12.6593 7.75573 12.8879 7.75573C12.9975 7.75573 13.0089 7.80142 12.9924 7.94876C12.9659 8.2199 12.9672 8.49308 12.9962 8.76396C13.0083 8.89264 12.9733 8.91709 12.8777 8.91645C12.4129 8.91645 11.948 8.91645 11.4837 8.91645H8.55437C8.40599 8.91645 8.40536 8.91644 8.40536 8.7646C8.40536 8.46799 8.40854 8.17073 8.40536 7.87412C8.40536 7.78405 8.43147 7.74995 8.52253 7.75381C8.66773 7.7596 8.81292 7.75381 8.95812 7.75381C8.99696 7.75381 9.03517 7.7493 9.09631 7.74544C8.87278 7.10203 8.65435 6.46956 8.4251 5.80814L6.50064 9.00073Z" fill="white"/>
</svg>
