<svg width="14" height="14" viewBox="0 0 14 14" fill="none" xmlns="http://www.w3.org/2000/svg">
<path d="M2.76444 12.4883C3.73891 12.4883 4.52888 11.6983 4.52888 10.7239C4.52888 9.74938 3.73891 8.95941 2.76444 8.95941C1.78997 8.95941 1 9.74938 1 10.7239C1 11.6983 1.78997 12.4883 2.76444 12.4883Z" stroke="#B29DC3" stroke-width="1.28571" stroke-linecap="round" stroke-linejoin="round"/>
<path d="M10.7041 10.2827C11.6786 10.2827 12.4686 9.49276 12.4686 8.51828C12.4686 7.54381 11.6786 6.75385 10.7041 6.75385C9.72966 6.75385 8.9397 7.54381 8.9397 8.51828C8.9397 9.49276 9.72966 10.2827 10.7041 10.2827Z" stroke="#B29DC3" stroke-width="1.28571" stroke-linecap="round" stroke-linejoin="round"/>
<path d="M12.4688 8.51833V1.60172C12.4684 1.53423 12.4525 1.46772 12.4224 1.40731C12.3923 1.34691 12.3487 1.29423 12.295 1.25332C12.2413 1.21242 12.179 1.18438 12.1127 1.17136C12.0465 1.15835 11.9782 1.16071 11.913 1.17826L4.85523 3.13679C4.76196 3.1619 4.67952 3.21693 4.62055 3.29343C4.56158 3.36992 4.52935 3.46366 4.52881 3.56025V10.7239" stroke="#B29DC3" stroke-width="1.28571" stroke-linecap="round" stroke-linejoin="round"/>
<path d="M4.52881 5.87163L12.4688 3.66608" stroke="#B29DC3" stroke-width="1.28571" stroke-linecap="round" stroke-linejoin="round"/>
</svg>
