<svg width="296" height="59" viewBox="0 0 296 59" fill="none" xmlns="http://www.w3.org/2000/svg">
<rect width="296" height="59" rx="20" fill="white"/>
<path d="M120.158 33.1719V35H111.963V33.1719H120.158ZM112.658 33.1719V37.7891H110.455L110.33 33.1719H112.658ZM121.845 33.1719L121.642 37.7969H119.494V33.1719H121.845ZM118.869 23.625V25.4609H113.392V23.625H118.869ZM120.541 23.625V35H118.205V23.625H120.541ZM113.103 23.625H115.447L115.142 28.2578C115.095 29.0234 115.012 29.7005 114.892 30.2891C114.778 30.8724 114.637 31.3854 114.47 31.8281C114.309 32.2708 114.129 32.6589 113.931 32.9922C113.733 33.3203 113.525 33.6068 113.306 33.8516C113.088 34.0911 112.866 34.3047 112.642 34.4922C112.418 34.6745 112.199 34.8438 111.986 35H110.642V33.1719H111.166C111.317 33.0469 111.476 32.875 111.642 32.6562C111.814 32.4375 111.976 32.1432 112.127 31.7734C112.283 31.3984 112.418 30.9245 112.533 30.3516C112.653 29.7786 112.741 29.0807 112.798 28.2578L113.103 23.625ZM129.246 25.5703L126.153 35H123.66L127.887 23.625H129.473L129.246 25.5703ZM131.817 35L128.715 25.5703L128.465 23.625H130.067L134.317 35H131.817ZM131.676 30.7656V32.6016H125.668V30.7656H131.676ZM144.538 23.625V25.4609H138.882V23.625H144.538ZM146.21 23.625V35H143.866V23.625H146.21ZM138.585 23.625H140.921L140.632 29.3359C140.59 30.1901 140.509 30.9323 140.389 31.5625C140.275 32.1927 140.119 32.7292 139.921 33.1719C139.723 33.6094 139.478 33.9635 139.186 34.2344C138.9 34.5 138.561 34.6953 138.171 34.8203C137.78 34.9401 137.335 35 136.835 35H136.257V33.1719L136.553 33.1484C136.809 33.1224 137.033 33.0547 137.225 32.9453C137.418 32.8359 137.582 32.6719 137.718 32.4531C137.858 32.2344 137.973 31.9557 138.061 31.6172C138.155 31.2734 138.228 30.8542 138.28 30.3594C138.337 29.8646 138.376 29.2865 138.397 28.625L138.585 23.625ZM151.204 27.7734H153.861C154.756 27.7734 155.527 27.9219 156.173 28.2188C156.819 28.5156 157.316 28.9323 157.665 29.4688C158.014 30.0052 158.189 30.6302 158.189 31.3438C158.189 31.8854 158.09 32.3802 157.892 32.8281C157.694 33.2708 157.405 33.6562 157.025 33.9844C156.65 34.3073 156.197 34.5573 155.665 34.7344C155.134 34.9115 154.533 35 153.861 35H149.673V23.625H152.025V33.1719H153.861C154.309 33.1719 154.678 33.0885 154.97 32.9219C155.262 32.7552 155.48 32.5339 155.626 32.2578C155.777 31.9766 155.853 31.6667 155.853 31.3281C155.853 31.0052 155.777 30.7135 155.626 30.4531C155.48 30.1875 155.262 29.9792 154.97 29.8281C154.678 29.6771 154.309 29.6016 153.861 29.6016H151.204V27.7734ZM161.105 23.625H163.457V33.1719H166.629V23.625H168.973V33.1719H172.113V23.625H174.449V35H161.105V23.625ZM185.53 33.1719V35H179.475V33.1719H185.53ZM180.241 23.625V35H177.897V23.625H180.241ZM184.741 28.2578V30.0391H179.475V28.2578H184.741ZM185.522 23.625V25.4609H179.475V23.625H185.522Z" fill="black"/>
</svg>
