<svg width="163" height="59" viewBox="0 0 163 59" fill="none" xmlns="http://www.w3.org/2000/svg">
<path d="M63.6367 7.03656C59.9983 3.46172 55.1117 1.65372 49.8709 1.94847C45.6622 2.15032 41.6793 3.98044 38.7081 7.07773L42.2019 14.4283C42.5037 13.9014 45.3591 9.54933 50.2616 9.34683C53.522 9.21177 56.5299 10.2541 58.7294 12.4161C59.7242 13.3885 60.5153 14.5628 61.0532 15.8659C61.5912 17.1691 61.8646 18.5731 61.8564 19.9906C61.8564 23.0913 60.6907 25.8938 58.5738 27.8945C56.3329 30.0022 53.2028 31.023 49.9868 30.6937C45.0383 30.1997 41.8875 26.1012 39.7038 21.848C36.2099 15.0129 33.3514 6.93777 26.3636 3.15051C23.7378 1.7343 20.8208 0.996553 17.8608 1.00001C4.87806 1.00001 -4.91267 15.4377 2.63246 29.6415C3.9821 32.1908 6.03095 34.2677 8.5196 35.609C16.2601 39.7568 24.4579 38.4082 29.9099 33.1999L26.281 26.3861C22.9555 30.786 16.9493 32.123 11.4941 28.7326C10.5024 28.1112 9.67037 27.2502 9.06906 26.2231C3.8966 17.496 9.86313 8.40657 17.8482 8.40657C22.1869 8.40657 25.927 10.832 28.1185 15.0623C28.6092 16.0963 31.6727 22.5313 33.3593 25.6238C33.3593 33.8569 33.3307 48.4856 33.3307 48.6766L40.4773 51C40.4773 50.8733 40.4867 41.545 40.4947 34.5024C43.0466 36.5233 46.0944 37.7607 49.2913 38.0739C54.5082 38.5992 59.6426 36.8884 63.3731 33.3778C67.0004 29.9642 68.9998 25.2121 68.9998 19.9956C69.0118 17.5695 68.5417 15.1668 67.619 12.9373C66.6964 10.7078 65.3408 8.69916 63.6367 7.03656Z" fill="white"/>
<path d="M105 20.5163C105 14.3524 102.443 8.71917 98.1593 5.44738C94.907 2.96109 91.016 1.75164 87.2133 2.0425C82.6489 2.39252 78.5109 4.43348 75.5628 7.794C72.6148 11.1545 71 15.662 71 20.5163C71.0054 25.416 72.8919 30.1133 76.2456 33.5783C79.5995 37.0433 84.1467 38.9931 88.8902 39C93.6314 39 97.9014 37.503 101.239 34.6716C101.979 34.044 102.667 33.3536 103.296 32.6076L98.3497 27.1848C97.8663 27.8414 97.3101 28.4376 96.6924 28.9612C94.6491 30.6949 91.9513 31.6101 88.8867 31.6101C86.6674 31.6071 84.503 30.8947 82.6909 29.5708C80.8786 28.2468 79.5075 26.3761 78.7655 24.2154H105V20.5163ZM78.662 16.8189C79.092 15.3137 79.8433 13.9272 80.8607 12.7617C82.5964 10.7898 84.9733 9.62955 87.7382 9.41758C89.807 9.25325 92.0548 9.97956 93.9051 11.3895C95.6914 12.7535 96.7688 14.7747 97.3346 16.8124L78.662 16.8189Z" fill="white"/>
<path d="M142 18.2331V38.9245L134.939 39V18.2331C134.939 12.8944 130.703 8.55302 125.512 8.55302C120.321 8.55302 116.083 12.8944 116.083 18.2331H116.061V39H109V2.58148H116.061V4.11592C118.845 2.07855 122.14 0.992113 125.512 1.00004C134.603 1.00004 142 8.72263 142 18.2331Z" fill="white"/>
</svg>
