<svg width="77" height="43" viewBox="0 0 77 43" fill="none" xmlns="http://www.w3.org/2000/svg">
<g clip-path="url(#clip0_69_1720)">
<path d="M34.4125 18.6318C32.45 16.6793 29.8142 15.6918 26.9873 15.8528C24.7171 15.963 22.5688 16.9626 20.9662 18.6543L22.8507 22.669C23.0135 22.3812 24.5537 20.0042 27.1981 19.8936C28.9567 19.8198 30.5792 20.3891 31.7656 21.57C32.3022 22.1011 32.7289 22.7424 33.019 23.4542C33.3092 24.166 33.4567 24.9328 33.4523 25.707C33.4523 27.4005 32.8235 28.9312 31.6816 30.0239C30.4729 31.1751 28.7845 31.7327 27.0499 31.5528C24.3807 31.283 22.6811 29.0445 21.5032 26.7215C19.6187 22.9883 18.0768 18.5778 14.3076 16.5093C12.8912 15.7358 11.3178 15.3328 9.72123 15.3347C2.71836 15.3347 -2.56272 23.2203 1.5071 30.9782C2.23509 32.3705 3.34023 33.5049 4.6826 34.2375C8.85779 36.5029 13.2797 35.7664 16.2205 32.9217L14.263 29.2001C12.4693 31.6032 9.22956 32.3335 6.28703 30.4817C5.75209 30.1423 5.30332 29.6721 4.97898 29.1111C2.18897 24.3445 5.40729 19.38 9.71438 19.38C12.0547 19.38 14.0721 20.7048 15.2542 23.0153C15.5189 23.58 17.1713 27.0947 18.081 28.7837C18.081 33.2805 18.0656 41.2704 18.0656 41.3748L21.9204 42.6437C21.9204 42.5745 21.9255 37.4796 21.9298 33.6331C23.3063 34.7368 24.9503 35.4127 26.6747 35.5838C29.4887 35.8707 32.2581 34.9363 34.2703 33.0188C36.2269 31.1544 37.3054 28.5589 37.3054 25.7097C37.3118 24.3846 37.0583 23.0724 36.5606 21.8547C36.0629 20.6369 35.3317 19.5398 34.4125 18.6318Z" fill="white"/>
<path d="M56.7806 25.9112C56.7806 22.5377 55.4041 19.4547 53.0974 17.6641C51.3462 16.3033 49.2512 15.6414 47.2037 15.8006C44.7461 15.9922 42.518 17.1092 40.9306 18.9484C39.3434 20.7875 38.4739 23.2545 38.4739 25.9112C38.4768 28.5927 39.4925 31.1636 41.2983 33.0599C43.1041 34.9563 45.5525 36.0234 48.1066 36.0272C50.6594 36.0272 52.9585 35.2079 54.7555 33.6583C55.1542 33.3148 55.5246 32.9369 55.8633 32.5287L53.1999 29.5608C52.9396 29.9202 52.6401 30.2465 52.3076 30.533C51.2074 31.4818 49.7548 31.9827 48.1047 31.9827C46.9097 31.9811 45.7444 31.5912 44.7686 30.8666C43.7929 30.142 43.0546 29.1182 42.6551 27.9356H56.7806V25.9112ZM42.5994 23.8876C42.8309 23.0638 43.2354 22.305 43.7832 21.6671C44.7178 20.5879 45.9976 19.9529 47.4863 19.8369C48.6002 19.747 49.8105 20.1445 50.8068 20.9161C51.7686 21.6626 52.3487 22.7688 52.6534 23.884L42.5994 23.8876Z" fill="white"/>
<path d="M76.7898 24.9424V36.027L72.9351 36.0675V24.9424C72.9351 22.0824 70.6222 19.7567 67.7884 19.7567C64.9545 19.7567 62.6412 22.0824 62.6412 24.9424H62.6289V36.0675H58.7742V16.5577H62.6289V17.3797C64.1486 16.2882 65.9475 15.7062 67.7884 15.7105C72.7518 15.7105 76.7898 19.8475 76.7898 24.9424Z" fill="white"/>
</g>
<path d="M20.4983 5.0001V0.847553H21.4119V2.66281L23.0966 0.847553H24.2L22.5093 2.60942L24.2771 5.0001H23.1796L21.8924 3.2323L21.4119 3.7306V5.0001H20.4983Z" fill="white"/>
<path d="M27.6197 5.07128C26.3384 5.07128 25.4189 4.1162 25.4189 2.92382C25.4189 1.74332 26.3502 0.776367 27.6316 0.776367C28.9129 0.776367 29.8324 1.73145 29.8324 2.92382C29.8324 4.10433 28.9011 5.07128 27.6197 5.07128ZM27.6316 4.22891C28.3672 4.22891 28.8773 3.64755 28.8773 2.92382C28.8773 2.21196 28.3553 1.61874 27.6197 1.61874C26.8841 1.61874 26.374 2.2001 26.374 2.92382C26.374 3.63569 26.896 4.22891 27.6316 4.22891Z" fill="white"/>
<path d="M31.414 5.0001V0.847553H32.3988L33.4903 2.60349L34.5818 0.847553H35.5666V5.0001H34.6589V2.28908L33.4903 4.06281H33.4666L32.3098 2.30688V5.0001H31.414Z" fill="white"/>
<path d="M36.9794 5.0001L38.7591 0.817892H39.6014L41.3811 5.0001H40.426L40.0463 4.06874H38.2904L37.9107 5.0001H36.9794ZM38.6167 3.26196H39.7201L39.1684 1.91535L38.6167 3.26196Z" fill="white"/>
<path d="M42.7932 5.0001V0.847553H43.7067V2.49077H45.3915V0.847553H46.305V5.0001H45.3915V3.33315H43.7067V5.0001H42.7932Z" fill="white"/>
<path d="M47.6325 5.8662V4.17552H48.024C48.3325 3.45772 48.4808 2.75179 48.4808 1.33399V0.847553H51.5003V4.17552H51.9986L51.8799 5.8662H51.1147V5.0001H48.5164L48.457 5.8662H47.6325ZM50.5867 1.67213H49.3587V2.09332C49.3587 2.97128 49.2223 3.6001 48.985 4.17552H50.5867V1.67213Z" fill="white"/>
<path d="M53.0517 5.0001L54.8314 0.817892H55.6738L57.4534 5.0001H56.4983L56.1187 4.06874H54.3627L53.9831 5.0001H53.0517ZM54.689 3.26196H55.7924L55.2407 1.91535L54.689 3.26196Z" fill="white"/>
<defs>
<clipPath id="clip0_69_1720">
<rect width="77" height="28" fill="white" transform="translate(0 15)"/>
</clipPath>
</defs>
</svg>
