<svg fill="none" height="10" viewBox="0 0 10 10" width="10" xmlns="http://www.w3.org/2000/svg"><path d="m6.34783 9.60884c.47272.30544 1.03604.43856 1.59523.37694.55919-.06161 1.08014-.31417 1.47527-.71522l.34544-.33827c.15144-.15514.23623-.36349.23623-.58045 0-.21697-.08479-.42531-.23623-.58045l-1.46617-1.45304c-.1536-.15119-.36035-.23591-.57572-.23591s-.42212.08472-.57572.23591c-.1549.15167-.36293.23659-.57956.23659s-.42465-.08492-.57955-.23659l-2.30288-2.30642c-.07683-.07583-.13783-.16619-.17947-.26584s-.06308-.20659-.06308-.31461c0-.10803.02144-.21497.06308-.31462s.10264-.19001.17947-.26583c.15095-.15384.23554-.36091.23554-.57661 0-.21569-.08459-.42276-.23554-.5766l-1.45849-1.460734c-.1549-.1516737-.36293-.23659772-.57956-.23659772s-.42466.08492402-.57956.23659772l-.337754.345963c-.400436.395737-.6526095.917491-.7141203 1.477541-.0615107.56005.0713931 1.12423.3763643 1.59769 1.58902 2.34542 3.61087 4.36515 5.95678 5.95056z" fill="#fff"/></svg>