<svg width="56" height="56" viewBox="0 0 56 56" fill="none" xmlns="http://www.w3.org/2000/svg">
<circle cx="28" cy="28" r="28" fill="white"/>
<g clip-path="url(#clip0_30_636)">
<path d="M38.2858 25.4285C38.2858 29.0596 34.0991 35.9656 31.0679 40.4898C29.5821 42.7074 26.418 42.7074 24.9322 40.4898C21.901 35.9656 17.7144 29.0596 17.7144 25.4285C17.7144 22.7006 18.798 20.0844 20.727 18.1554C22.6559 16.2265 25.2721 15.1428 28.0001 15.1428C30.728 15.1428 33.3442 16.2265 35.2732 18.1554C37.2021 20.0844 38.2858 22.7006 38.2858 25.4285Z" stroke="black" stroke-width="2.8" stroke-linecap="round" stroke-linejoin="round"/>
<path d="M28.0001 28.8571C29.8937 28.8571 31.4287 27.3221 31.4287 25.4286C31.4287 23.535 29.8937 22 28.0001 22C26.1066 22 24.5715 23.535 24.5715 25.4286C24.5715 27.3221 26.1066 28.8571 28.0001 28.8571Z" fill="black"/>
</g>
<defs>
<clipPath id="clip0_30_636">
<rect width="32" height="32" fill="white" transform="translate(12 14)"/>
</clipPath>
</defs>
</svg>
