<svg width="296" height="60" viewBox="0 0 296 60" fill="none" xmlns="http://www.w3.org/2000/svg">
<rect x="1" y="1.91235" width="294" height="57" rx="19" stroke="white" stroke-width="2"/>
<path d="M49.4709 30.4592H47.7053V29.217H49.1116C49.523 29.217 49.8564 29.1545 50.1116 29.0295C50.3668 28.8993 50.5543 28.717 50.6741 28.4827C50.7939 28.2483 50.8538 27.9722 50.8538 27.6545C50.8538 27.3941 50.786 27.1545 50.6506 26.9358C50.5204 26.717 50.3173 26.5426 50.0413 26.4124C49.7652 26.2769 49.4136 26.2092 48.9866 26.2092C48.6636 26.2092 48.3694 26.2665 48.1038 26.3811C47.8381 26.4957 47.6272 26.6571 47.4709 26.8655C47.3147 27.0686 47.2366 27.316 47.2366 27.6077H44.9006C44.9006 27.1077 45.0074 26.6597 45.2209 26.2639C45.4397 25.8629 45.7366 25.5243 46.1116 25.2483C46.4918 24.967 46.9293 24.7535 47.4241 24.6077C47.9189 24.4618 48.4397 24.3889 48.9866 24.3889C49.6272 24.3889 50.2053 24.4592 50.7209 24.5999C51.2366 24.7353 51.6793 24.9384 52.0491 25.2092C52.4189 25.4801 52.7027 25.816 52.9006 26.217C53.0985 26.6181 53.1975 27.0842 53.1975 27.6155C53.1975 28.0061 53.109 28.3733 52.9319 28.717C52.7548 29.0608 52.5022 29.3629 52.1741 29.6233C51.8459 29.8837 51.4527 30.0894 50.9944 30.2405C50.536 30.3863 50.0282 30.4592 49.4709 30.4592ZM47.7053 29.7795H49.4709C50.0907 29.7795 50.6402 29.8446 51.1194 29.9749C51.6038 30.1051 52.0126 30.2952 52.3459 30.5452C52.6845 30.7952 52.9397 31.1051 53.1116 31.4749C53.2886 31.8394 53.3772 32.2587 53.3772 32.7327C53.3772 33.2639 53.2678 33.7353 53.0491 34.1467C52.8355 34.5582 52.5308 34.9071 52.135 35.1936C51.7444 35.4801 51.2808 35.6962 50.7444 35.842C50.2131 35.9879 49.6272 36.0608 48.9866 36.0608C48.4761 36.0608 47.9683 35.9983 47.4631 35.8733C46.9579 35.7431 46.4996 35.5452 46.0881 35.2795C45.6767 35.0139 45.3485 34.6728 45.1038 34.2561C44.859 33.8394 44.7366 33.3394 44.7366 32.7561H47.0881C47.0881 33.0321 47.1689 33.2847 47.3303 33.5139C47.4918 33.7379 47.7157 33.9176 48.0022 34.053C48.2886 34.1832 48.6168 34.2483 48.9866 34.2483C49.4189 34.2483 49.786 34.1806 50.0881 34.0452C50.3954 33.9097 50.6272 33.7249 50.7834 33.4905C50.9449 33.2509 51.0256 32.9879 51.0256 32.7014C51.0256 32.3941 50.984 32.1337 50.9006 31.9202C50.8173 31.7066 50.6949 31.5321 50.5334 31.3967C50.372 31.2561 50.1715 31.1545 49.9319 31.092C49.6975 31.0295 49.4241 30.9983 49.1116 30.9983H47.7053V29.7795ZM61.1766 26.4827L58.0828 35.9124H55.5906L59.8172 24.5374H61.4031L61.1766 26.4827ZM63.7469 35.9124L60.6453 26.4827L60.3953 24.5374H61.9969L66.2469 35.9124H63.7469ZM63.6063 31.678V33.5139H57.5984V31.678H63.6063ZM73.1713 31.8577H70.2728V30.0295H73.1713C73.6192 30.0295 73.9838 29.9566 74.265 29.8108C74.5463 29.6597 74.752 29.4514 74.8822 29.1858C75.0124 28.9202 75.0775 28.6207 75.0775 28.2874C75.0775 27.9488 75.0124 27.6337 74.8822 27.342C74.752 27.0504 74.5463 26.816 74.265 26.6389C73.9838 26.4618 73.6192 26.3733 73.1713 26.3733H71.0853V35.9124H68.7416V24.5374H73.1713C74.0619 24.5374 74.8249 24.6988 75.4603 25.0217C76.1009 25.3394 76.5905 25.7795 76.9291 26.342C77.2676 26.9045 77.4369 27.5478 77.4369 28.2717C77.4369 29.0061 77.2676 29.6415 76.9291 30.178C76.5905 30.7144 76.1009 31.1285 75.4603 31.4202C74.8249 31.7118 74.0619 31.8577 73.1713 31.8577ZM88.1269 34.0842V35.9124H82.0722V34.0842H88.1269ZM82.8378 24.5374V35.9124H80.4941V24.5374H82.8378ZM87.3378 29.1702V30.9514H82.0722V29.1702H87.3378ZM88.1191 24.5374V26.3733H82.0722V24.5374H88.1191ZM98.4028 24.5374V26.3733H93.2778V35.9124H90.9419V24.5374H98.4028ZM103.554 32.2249L108.124 24.5374H110.468V35.9124H108.124V28.2249L103.554 35.9124H101.21V24.5374H103.554V32.2249ZM120.533 32.1389H122.869C122.822 32.9045 122.611 33.5842 122.236 34.178C121.866 34.7717 121.348 35.2353 120.681 35.5686C120.02 35.9019 119.223 36.0686 118.291 36.0686C117.561 36.0686 116.908 35.9436 116.33 35.6936C115.752 35.4384 115.257 35.0738 114.845 34.5999C114.439 34.1259 114.129 33.553 113.916 32.8811C113.702 32.2092 113.595 31.4566 113.595 30.6233V29.8342C113.595 29.0009 113.705 28.2483 113.923 27.5764C114.147 26.8993 114.465 26.3238 114.877 25.8499C115.293 25.3759 115.791 25.0113 116.369 24.7561C116.947 24.5009 117.593 24.3733 118.306 24.3733C119.254 24.3733 120.054 24.5452 120.705 24.8889C121.361 25.2327 121.869 25.7066 122.228 26.3108C122.593 26.915 122.811 27.6025 122.884 28.3733H120.541C120.515 27.915 120.423 27.5269 120.267 27.2092C120.111 26.8863 119.874 26.6441 119.556 26.4827C119.244 26.316 118.827 26.2327 118.306 26.2327C117.916 26.2327 117.574 26.3056 117.283 26.4514C116.991 26.5972 116.746 26.8186 116.548 27.1155C116.351 27.4124 116.202 27.7874 116.103 28.2405C116.009 28.6884 115.963 29.2144 115.963 29.8186V30.6233C115.963 31.2118 116.007 31.7301 116.095 32.178C116.184 32.6207 116.319 32.9957 116.502 33.303C116.689 33.6051 116.929 33.8342 117.22 33.9905C117.517 34.1415 117.874 34.217 118.291 34.217C118.78 34.217 119.184 34.1389 119.502 33.9827C119.819 33.8264 120.061 33.5946 120.228 33.2874C120.4 32.9801 120.502 32.5972 120.533 32.1389ZM130.699 24.5374V35.9124H128.363V24.5374H130.699ZM134.199 24.5374V26.3733H124.918V24.5374H134.199ZM141.405 31.8577H138.507V30.0295H141.405C141.853 30.0295 142.218 29.9566 142.499 29.8108C142.78 29.6597 142.986 29.4514 143.116 29.1858C143.246 28.9202 143.311 28.6207 143.311 28.2874C143.311 27.9488 143.246 27.6337 143.116 27.342C142.986 27.0504 142.78 26.816 142.499 26.6389C142.218 26.4618 141.853 26.3733 141.405 26.3733H139.319V35.9124H136.975V24.5374H141.405C142.296 24.5374 143.059 24.6988 143.694 25.0217C144.335 25.3394 144.824 25.7795 145.163 26.342C145.501 26.9045 145.671 27.5478 145.671 28.2717C145.671 29.0061 145.501 29.6415 145.163 30.178C144.824 30.7144 144.335 31.1285 143.694 31.4202C143.059 31.7118 142.296 31.8577 141.405 31.8577ZM150.986 32.2249L155.556 24.5374H157.9V35.9124H155.556V28.2249L150.986 35.9124H148.642V24.5374H150.986V32.2249ZM165.801 31.8577H162.902V30.0295H165.801C166.249 30.0295 166.613 29.9566 166.894 29.8108C167.176 29.6597 167.381 29.4514 167.512 29.1858C167.642 28.9202 167.707 28.6207 167.707 28.2874C167.707 27.9488 167.642 27.6337 167.512 27.342C167.381 27.0504 167.176 26.816 166.894 26.6389C166.613 26.4618 166.249 26.3733 165.801 26.3733H163.715V35.9124H161.371V24.5374H165.801C166.691 24.5374 167.454 24.6988 168.09 25.0217C168.73 25.3394 169.22 25.7795 169.558 26.342C169.897 26.9045 170.066 27.5478 170.066 28.2717C170.066 29.0061 169.897 29.6415 169.558 30.178C169.22 30.7144 168.73 31.1285 168.09 31.4202C167.454 31.7118 166.691 31.8577 165.801 31.8577ZM182.467 29.9592V30.4983C182.467 31.3629 182.35 32.1389 182.116 32.8264C181.881 33.5139 181.551 34.0999 181.123 34.5842C180.696 35.0634 180.186 35.4306 179.592 35.6858C179.004 35.941 178.35 36.0686 177.631 36.0686C176.918 36.0686 176.264 35.941 175.67 35.6858C175.082 35.4306 174.571 35.0634 174.139 34.5842C173.707 34.0999 173.371 33.5139 173.131 32.8264C172.897 32.1389 172.78 31.3629 172.78 30.4983V29.9592C172.78 29.0894 172.897 28.3134 173.131 27.6311C173.366 26.9436 173.696 26.3577 174.123 25.8733C174.556 25.3889 175.066 25.0191 175.655 24.7639C176.248 24.5087 176.902 24.3811 177.616 24.3811C178.334 24.3811 178.988 24.5087 179.577 24.7639C180.17 25.0191 180.681 25.3889 181.108 25.8733C181.54 26.3577 181.873 26.9436 182.108 27.6311C182.347 28.3134 182.467 29.0894 182.467 29.9592ZM180.1 30.4983V29.9436C180.1 29.3394 180.045 28.8082 179.936 28.3499C179.827 27.8915 179.665 27.5061 179.452 27.1936C179.238 26.8811 178.978 26.6467 178.67 26.4905C178.363 26.329 178.011 26.2483 177.616 26.2483C177.22 26.2483 176.868 26.329 176.561 26.4905C176.259 26.6467 176.001 26.8811 175.788 27.1936C175.579 27.5061 175.42 27.8915 175.311 28.3499C175.202 28.8082 175.147 29.3394 175.147 29.9436V30.4983C175.147 31.0972 175.202 31.6285 175.311 32.092C175.42 32.5504 175.582 32.9384 175.795 33.2561C176.009 33.5686 176.269 33.8056 176.577 33.967C176.884 34.1285 177.235 34.2092 177.631 34.2092C178.027 34.2092 178.379 34.1285 178.686 33.967C178.993 33.8056 179.251 33.5686 179.459 33.2561C179.668 32.9384 179.827 32.5504 179.936 32.092C180.045 31.6285 180.1 31.0972 180.1 30.4983ZM190.048 30.9202H187.126L187.11 29.3108H189.563C189.996 29.3108 190.35 29.2561 190.626 29.1467C190.902 29.0321 191.108 28.8681 191.243 28.6545C191.384 28.4358 191.454 28.1702 191.454 27.8577C191.454 27.5035 191.386 27.217 191.251 26.9983C191.121 26.7795 190.915 26.6207 190.634 26.5217C190.358 26.4228 190.001 26.3733 189.563 26.3733H187.938V35.9124H185.595V24.5374H189.563C190.225 24.5374 190.816 24.5999 191.337 24.7249C191.863 24.8499 192.308 25.04 192.673 25.2952C193.037 25.5504 193.316 25.8733 193.509 26.2639C193.701 26.6493 193.798 27.1077 193.798 27.6389C193.798 28.1077 193.691 28.54 193.478 28.9358C193.269 29.3316 192.938 29.6545 192.485 29.9045C192.037 30.1545 191.451 30.2926 190.728 30.3186L190.048 30.9202ZM189.946 35.9124H186.485L187.399 34.0842H189.946C190.358 34.0842 190.694 34.0191 190.954 33.8889C191.214 33.7535 191.407 33.5712 191.532 33.342C191.657 33.1129 191.72 32.8499 191.72 32.553C191.72 32.2196 191.662 31.9306 191.548 31.6858C191.438 31.441 191.261 31.2535 191.017 31.1233C190.772 30.9879 190.449 30.9202 190.048 30.9202H187.79L187.806 29.3108H190.618L191.157 29.9436C191.85 29.9332 192.407 30.0556 192.829 30.3108C193.256 30.5608 193.566 30.8863 193.759 31.2874C193.957 31.6884 194.056 32.1181 194.056 32.5764C194.056 33.3056 193.897 33.9202 193.579 34.4202C193.261 34.915 192.795 35.2874 192.181 35.5374C191.571 35.7874 190.826 35.9124 189.946 35.9124ZM201.878 26.4827L198.785 35.9124H196.293L200.519 24.5374H202.105L201.878 26.4827ZM204.449 35.9124L201.347 26.4827L201.097 24.5374H202.699L206.949 35.9124H204.449ZM204.308 31.678V33.5139H198.3V31.678H204.308ZM213.561 24.5374V35.9124H211.225V24.5374H213.561ZM217.061 24.5374V26.3733H207.779V24.5374H217.061ZM221.477 28.6858H224.133C225.029 28.6858 225.8 28.8342 226.446 29.1311C227.092 29.428 227.589 29.8446 227.938 30.3811C228.287 30.9176 228.462 31.5426 228.462 32.2561C228.462 32.7978 228.363 33.2926 228.165 33.7405C227.967 34.1832 227.678 34.5686 227.298 34.8967C226.923 35.2196 226.469 35.4696 225.938 35.6467C225.407 35.8238 224.805 35.9124 224.133 35.9124H219.946V24.5374H222.298V34.0842H224.133C224.581 34.0842 224.951 34.0009 225.243 33.8342C225.534 33.6676 225.753 33.4462 225.899 33.1702C226.05 32.8889 226.126 32.579 226.126 32.2405C226.126 31.9176 226.05 31.6259 225.899 31.3655C225.753 31.0999 225.534 30.8915 225.243 30.7405C224.951 30.5894 224.581 30.5139 224.133 30.5139H221.477V28.6858ZM237.995 32.1389H240.331C240.284 32.9045 240.073 33.5842 239.698 34.178C239.329 34.7717 238.81 35.2353 238.144 35.5686C237.482 35.9019 236.685 36.0686 235.753 36.0686C235.024 36.0686 234.37 35.9436 233.792 35.6936C233.214 35.4384 232.719 35.0738 232.308 34.5999C231.902 34.1259 231.592 33.553 231.378 32.8811C231.165 32.2092 231.058 31.4566 231.058 30.6233V29.8342C231.058 29.0009 231.167 28.2483 231.386 27.5764C231.61 26.8993 231.928 26.3238 232.339 25.8499C232.756 25.3759 233.253 25.0113 233.831 24.7561C234.409 24.5009 235.055 24.3733 235.769 24.3733C236.717 24.3733 237.516 24.5452 238.167 24.8889C238.823 25.2327 239.331 25.7066 239.691 26.3108C240.055 26.915 240.274 27.6025 240.347 28.3733H238.003C237.977 27.915 237.886 27.5269 237.73 27.2092C237.573 26.8863 237.336 26.6441 237.019 26.4827C236.706 26.316 236.29 26.2327 235.769 26.2327C235.378 26.2327 235.037 26.3056 234.745 26.4514C234.454 26.5972 234.209 26.8186 234.011 27.1155C233.813 27.4124 233.665 27.7874 233.566 28.2405C233.472 28.6884 233.425 29.2144 233.425 29.8186V30.6233C233.425 31.2118 233.469 31.7301 233.558 32.178C233.646 32.6207 233.782 32.9957 233.964 33.303C234.152 33.6051 234.391 33.8342 234.683 33.9905C234.98 34.1415 235.336 34.217 235.753 34.217C236.243 34.217 236.646 34.1389 236.964 33.9827C237.282 33.8264 237.524 33.5946 237.691 33.2874C237.863 32.9801 237.964 32.5972 237.995 32.1389ZM249.357 31.7795H246.263L245.474 31.4514C244.584 31.1702 243.901 30.7483 243.427 30.1858C242.959 29.6233 242.724 28.9071 242.724 28.0374C242.724 27.2717 242.894 26.6311 243.232 26.1155C243.576 25.5946 244.06 25.2014 244.685 24.9358C245.316 24.6702 246.063 24.5374 246.927 24.5374H250.896V35.9124H248.545V26.3733H246.927C246.287 26.3733 245.816 26.5321 245.513 26.8499C245.211 27.1676 245.06 27.6181 245.06 28.2014C245.06 28.6285 245.131 28.9801 245.271 29.2561C245.412 29.5269 245.618 29.7301 245.888 29.8655C246.159 29.9957 246.5 30.0608 246.912 30.0608H249.349L249.357 31.7795ZM247.099 30.8342L244.576 35.9124H242.037L244.568 30.8342H247.099Z" fill="white"/>
</svg>
