<svg width="14" height="14" viewBox="0 0 14 14" fill="none" xmlns="http://www.w3.org/2000/svg">
<path d="M5.90786 10.6847L7.92235 12.6961C8.0474 12.8211 8.20235 12.9122 8.37247 12.9605C8.54259 13.0088 8.72224 13.0129 8.89438 12.9723C9.06651 12.9317 9.22541 12.8478 9.35599 12.7285C9.48657 12.6093 9.5845 12.4586 9.64048 12.2909L12.9466 2.36511C13.0076 2.1824 13.0165 1.9863 12.9723 1.7988C12.9281 1.6113 12.8326 1.43983 12.6963 1.30362C12.5601 1.1674 12.3886 1.07184 12.2011 1.02765C12.0135 0.983454 11.8174 0.992382 11.6347 1.05343L1.70717 4.36171C1.53994 4.4179 1.38979 4.51579 1.27092 4.64613C1.15205 4.77647 1.06837 4.93496 1.02781 5.10663C0.987239 5.27829 0.991116 5.45747 1.03907 5.62722C1.08703 5.79697 1.17747 5.9517 1.30187 6.07678L3.83244 8.60968L3.74658 11.8081L5.90786 10.6847Z" stroke="white" stroke-width="1.46631" stroke-linecap="round" stroke-linejoin="round"/>
<path d="M12.5 1.5L3.82349 8.05882" stroke="white" stroke-width="1.46631" stroke-linecap="round" stroke-linejoin="round"/>
</svg>
