<svg width="25" height="32" viewBox="0 0 25 32" fill="none" xmlns="http://www.w3.org/2000/svg">
<path d="M22.3847 0.0586841C22.1036 -0.0328273 21.7992 -0.0168817 21.5289 0.103503C21.2587 0.223888 21.0413 0.440368 20.918 0.712027C20.5596 1.34862 20.1957 2.33142 20.8628 4.17419C21.287 5.16033 21.5818 6.19852 21.7396 7.26222C21.6425 8.28293 21.4878 9.29717 21.2764 10.3C21.2077 10.1637 21.1505 10.0217 21.1055 9.87559C20.7868 8.81657 20.0912 7.91511 19.1536 7.34598C18.4919 6.916 17.8909 6.95509 17.4994 7.45208C17.1893 7.9321 17.0565 8.50758 17.1245 9.07706C17.2237 10.9031 18.922 12.1037 19.4458 12.4275C19.8184 12.6539 20.1549 12.9364 20.4438 13.2652C19.8213 15.0867 18.9825 16.825 17.946 18.4417C17.8523 17.3862 17.1906 15.9623 16.2919 15.4653C16.0964 15.3517 15.8749 15.2919 15.6495 15.2919C15.4241 15.2919 15.2026 15.3517 15.0071 15.4653C14.8101 15.5685 14.6371 15.7132 14.4999 15.8897C13.6121 17.0065 14.2407 19.2402 14.8472 20.1895C15.132 20.6235 15.3565 21.0951 15.5144 21.5911C14.2429 22.9836 12.8099 24.2154 11.2467 25.2599C11.4193 24.5647 11.3809 23.833 11.1364 23.1602C10.7946 22.3338 10.2983 21.8368 9.74139 21.7642C9.05216 21.6693 8.35189 22.25 7.93835 23.2663C7.52481 24.2827 7.93838 26.2427 8.20856 27.0077C5.76607 28.1929 3.16533 29.0094 0.489153 29.4312C0.169349 29.4871 -0.0622589 29.8109 0.0149352 30.0287C0.0590461 30.1237 0.185888 30.4029 0.693163 30.3247C2.48397 30.0494 4.24642 29.6101 5.95889 29.0124C6.52934 29.9977 7.30448 30.8456 8.2306 31.4974C9.33337 32.1395 10.9875 32.2401 11.6547 31.3633C11.7704 31.2046 11.8534 31.0239 11.8988 30.8321C11.9443 30.6403 11.9513 30.4411 11.9194 30.2465C11.7705 29.0403 10.0391 28.3758 8.43461 28.0129C10.3657 27.1299 12.1793 26.0043 13.8327 24.6624C14.7982 25.5311 15.8805 26.2568 17.0473 26.8179C18.3044 27.3428 20.0358 27.3428 20.7471 26.4214C20.8842 26.2371 20.9795 26.0244 21.0262 25.7986C21.0729 25.5727 21.0699 25.3392 21.0173 25.1147C20.7085 23.3166 18.2107 23.0151 17.2678 22.881L17.0362 22.8531C16.6355 22.8053 16.232 22.7867 15.8287 22.7973C16.154 22.4622 16.4793 22.1104 16.8047 21.7307L16.8874 21.6581L16.948 21.5576C17.7981 20.5501 18.5636 19.4723 19.2363 18.3356C20.3272 18.8275 21.547 18.9452 22.71 18.6706C23.4147 18.4658 24.0402 18.0467 24.502 17.47C24.721 17.2301 24.8751 16.937 24.9495 16.619C25.0239 16.3011 25.016 15.9691 24.9266 15.6552C24.832 15.4295 24.6802 15.2331 24.4865 15.086C24.2928 14.9389 24.0642 14.8463 23.8238 14.8176C22.8193 14.603 21.7737 14.7144 20.8353 15.1359C21.7969 12.6264 22.4183 9.99654 22.6824 7.31807C23.5049 6.094 23.9237 4.63775 23.8789 3.15788C23.9085 2.55665 23.7833 1.95796 23.5155 1.42052C23.2478 0.883074 22.8467 0.425336 22.3516 0.0921875" fill="white"/>
</svg>
