<svg width="293" height="10" viewBox="0 0 293 10" fill="none" xmlns="http://www.w3.org/2000/svg">
<g clip-path="url(#clip0_74_3626)">
<path opacity="0.3" d="M0.216309 9.1698L11.0475 1.025L21.8787 9.1698L32.7168 1.025L43.548 9.1698L54.3861 1.025L65.2243 9.1698L76.0555 1.025L86.8936 9.1698L97.7248 1.025L108.563 9.1698L119.401 1.025L130.232 9.1698L141.07 1.025L151.902 9.1698L162.74 1.025L173.571 9.1698L184.409 1.025L195.247 9.1698L206.085 1.025L216.917 9.1698L227.755 1.025L238.593 9.1698L249.431 1.025L260.269 9.1698L271.107 1.025L281.945 9.1698L292.791 1.025" stroke="#9D9D9D" stroke-miterlimit="10"/>
</g>
<defs>
<clipPath id="clip0_74_3626">
<rect width="293" height="9" fill="white" transform="matrix(1 0 0 -1 0 9.59741)"/>
</clipPath>
</defs>
</svg>
