<svg width="205" height="18" viewBox="0 0 205 18" fill="none" xmlns="http://www.w3.org/2000/svg">
<g clip-path="url(#clip0_30_455)">
<path d="M8.14773 6.30048V13.9238H6.25269V8.9308L4.7045 10.9366H3.44639L1.89819 8.9308V13.9238H0V6.30048H1.96126L4.06756 9.08462L6.18647 6.30048H8.14773Z" fill="white"/>
<path d="M13.8927 7.85405C13.6018 7.85038 13.3135 7.90688 13.0466 8.01983C12.7798 8.13277 12.5405 8.2996 12.3445 8.50933C11.9292 8.93739 11.7027 9.50742 11.7139 10.0968C11.7053 10.6902 11.9311 11.2641 12.3445 11.6996C12.5434 11.9053 12.7834 12.0693 13.0496 12.1813C13.3159 12.2934 13.6027 12.3512 13.8927 12.3512C14.1826 12.3512 14.4695 12.2934 14.7357 12.1813C15.002 12.0693 15.2419 11.9053 15.4409 11.6996C15.8543 11.2641 16.0801 10.6902 16.0715 10.0968C16.0826 9.50742 15.8562 8.93739 15.4409 8.50933C15.2461 8.29819 15.007 8.13041 14.7399 8.01735C14.4727 7.90429 14.1838 7.84859 13.8927 7.85405ZM17.9918 10.0968C17.9947 10.6219 17.8906 11.1424 17.6854 11.6278C17.4802 12.1133 17.1781 12.5541 16.7966 12.9246C16.4151 13.2951 15.9619 13.5878 15.4634 13.7858C14.9648 13.9837 14.4309 14.0829 13.8927 14.0776C13.3562 14.0821 12.8241 13.9822 12.3277 13.7836C11.8313 13.585 11.3804 13.2917 11.0016 12.921C10.6228 12.5503 10.3237 12.1095 10.1216 11.6246C9.91962 11.1396 9.81881 10.6202 9.82512 10.0968C9.81531 9.57554 9.91518 9.05791 10.1186 8.57585C10.3219 8.0938 10.6245 7.65758 11.0076 7.29415C11.3862 6.92348 11.8371 6.63067 12.3338 6.43304C12.8304 6.23541 13.3627 6.13699 13.899 6.14358C14.4363 6.1332 14.9702 6.22988 15.4679 6.42772C15.9656 6.62555 16.4167 6.92037 16.7936 7.29415C17.1805 7.65546 17.4867 8.09095 17.6929 8.57325C17.8991 9.05555 18.0009 9.57425 17.9918 10.0968Z" fill="white"/>
<path d="M25.5184 11.7764V13.5177C24.8083 13.9047 24.0045 14.0981 23.1914 14.0776C22.6474 14.092 22.1062 13.9973 21.6013 13.7994C21.0963 13.6015 20.6384 13.3046 20.2558 12.927C19.5069 12.1706 19.0896 11.1592 19.0925 10.1075C19.0955 9.05575 19.5184 8.04656 20.2716 7.29414C20.6546 6.91716 21.1126 6.62063 21.6175 6.42276C22.1223 6.22489 22.6633 6.12988 23.2072 6.14357C23.589 6.14236 23.9694 6.18889 24.3391 6.28201C24.6155 6.34564 24.8832 6.44062 25.1369 6.56503L25.3891 6.70347V8.42933C24.7659 8.05721 24.0482 7.86322 23.3175 7.86942C23.0115 7.85948 22.7069 7.91303 22.4237 8.02652C22.1405 8.14001 21.8852 8.31086 21.6747 8.52777C21.464 8.73726 21.2978 8.98538 21.1857 9.25783C21.0737 9.53028 21.0181 9.82167 21.022 10.1152C21.0164 10.7122 21.2507 11.2876 21.6747 11.718C21.8893 11.9336 22.1476 12.103 22.4333 12.2153C22.7189 12.3276 23.0255 12.3804 23.3333 12.3702C23.6864 12.3671 24.0375 12.3174 24.377 12.2225C24.6699 12.1506 24.9558 12.0538 25.2315 11.9333L25.5184 11.7764Z" fill="white"/>
<path d="M29.2012 6.30048V9.1646L31.5913 6.30048H34.0634L30.8755 9.87833L34.3345 13.9238H31.8625L29.2012 10.7336V13.9238H27.2715V6.30048H29.2012Z" fill="white"/>
<path d="M38.7239 7.85405C38.433 7.85038 38.1447 7.90687 37.8778 8.01982C37.611 8.13277 37.3717 8.2996 37.1757 8.50932C36.7604 8.93738 36.5339 9.50742 36.5451 10.0967C36.5365 10.6902 36.7623 11.2641 37.1757 11.6995C37.3746 11.9053 37.6146 12.0693 37.8808 12.1813C38.1471 12.2934 38.4339 12.3512 38.7239 12.3512C39.0138 12.3512 39.3007 12.2934 39.5669 12.1813C39.8332 12.0693 40.0731 11.9053 40.2721 11.6995C40.6855 11.2641 40.9113 10.6902 40.9027 10.0967C40.9138 9.50742 40.6874 8.93738 40.2721 8.50932C40.0773 8.29819 39.8382 8.1304 39.5711 8.01734C39.3039 7.90428 39.015 7.84859 38.7239 7.85405ZM42.823 10.0967C42.8259 10.6219 42.7218 11.1423 42.5166 11.6278C42.3114 12.1133 42.0093 12.5541 41.6278 12.9246C41.2463 13.2951 40.7931 13.5878 40.2946 13.7858C39.796 13.9837 39.2621 14.0829 38.7239 14.0776C38.1868 14.083 37.6541 13.9836 37.1569 13.7854C36.6598 13.5871 36.2082 13.294 35.8287 12.9232C35.4493 12.5524 35.1495 12.1114 34.9471 11.626C34.7447 11.1406 34.6437 10.6207 34.65 10.0967C34.6406 9.57605 34.7407 9.059 34.9441 8.57751C35.1475 8.09602 35.4498 7.66029 35.8324 7.29722C36.2111 6.92655 36.662 6.63374 37.1587 6.43611C37.6553 6.23849 38.1876 6.14006 38.7239 6.14665C39.2613 6.13591 39.7952 6.23242 40.293 6.43028C40.7907 6.62813 41.2418 6.92315 41.6185 7.29722C42.0054 7.65854 42.3116 8.09403 42.5178 8.57633C42.724 9.05863 42.8258 9.57731 42.8167 10.0998" fill="white"/>
<path d="M49.2648 11.558C49.2648 11.0904 48.8559 10.8566 48.0382 10.8566H46.3607V12.2194H48.1959C48.4689 12.2329 48.7402 12.1699 48.9778 12.0379C49.0651 11.9917 49.1379 11.9232 49.1885 11.8398C49.239 11.7563 49.2654 11.6611 49.2648 11.5642M46.3607 9.24456H47.972C48.2428 9.2593 48.5121 9.19734 48.7477 9.06614C48.8315 9.02072 48.9014 8.9543 48.9502 8.87372C48.999 8.79315 49.0248 8.70134 49.0251 8.60776C49.0281 8.51612 49.0059 8.42537 48.9611 8.34482C48.9162 8.26426 48.8501 8.1968 48.7697 8.14937C48.5632 8.03024 48.3251 7.9735 48.0855 7.98632H46.3607V9.24456ZM50.9675 8.49393C50.9688 8.74649 50.9105 8.99597 50.7972 9.22304C50.7173 9.40958 50.6005 9.57894 50.4535 9.72141L50.2769 9.87831C50.3713 9.93251 50.461 9.99424 50.545 10.0629C50.7157 10.2338 50.8592 10.4288 50.9706 10.6413C51.1517 10.9478 51.2443 11.2965 51.2386 11.6503C51.2464 11.9672 51.1783 12.2815 51.0399 12.5683C50.9014 12.8551 50.6963 13.1064 50.4409 13.3023C49.8607 13.7323 49.1444 13.95 48.4166 13.9176H44.4814V6.30046H47.9499C48.7276 6.25666 49.4998 6.45252 50.1571 6.86036C50.4202 7.04517 50.6313 7.29177 50.7707 7.57732C50.9102 7.86287 50.9735 8.17815 50.9549 8.49393" fill="white"/>
<path d="M58.8503 11.7764V13.5177C58.1391 13.905 57.3343 14.0984 56.5201 14.0776C55.9766 14.092 55.4359 13.9972 54.9315 13.7993C54.427 13.6014 53.9697 13.3045 53.5877 12.927C52.8359 12.173 52.4153 11.1625 52.4153 10.1106C52.4153 9.05863 52.8359 8.04819 53.5877 7.29413C53.9709 6.91745 54.429 6.62111 54.9338 6.42326C55.4385 6.22542 55.9794 6.13024 56.5233 6.14356C56.9061 6.1422 57.2876 6.18873 57.6584 6.282C57.9337 6.34553 58.2004 6.44053 58.453 6.56503L58.7084 6.70347V8.42932C58.085 8.05766 57.3673 7.86371 56.6368 7.86942C56.331 7.85908 56.0265 7.91215 55.7433 8.0251C55.4601 8.13806 55.2047 8.30833 54.994 8.52469C54.7828 8.73402 54.6161 8.98205 54.5035 9.25449C54.391 9.52693 54.3348 9.81839 54.3381 10.1121C54.3337 10.7095 54.5691 11.2848 54.994 11.7149C55.2085 11.9305 55.4669 12.0999 55.7525 12.2122C56.0382 12.3246 56.3447 12.3773 56.6525 12.3671C57.0056 12.3638 57.3567 12.3141 57.6962 12.2194C57.989 12.147 58.2749 12.0503 58.5507 11.9303L58.8503 11.7764Z" fill="white"/>
<path d="M62.5332 6.30048V9.1646L64.9233 6.30048H67.3954L64.2076 9.87833L67.6666 13.9238H65.1945L62.5332 10.7336V13.9238H60.6035V6.30048H62.5332Z" fill="white"/>
<path d="M68.9436 13.9238V6.30048H70.8733V10.9828L71.1256 10.3921L73.8531 6.30048H75.8805V13.9238H73.9508V9.22613L73.6954 9.83218L70.9522 13.9238H68.9436Z" fill="white"/>
<path d="M81.5529 7.76176C81.0664 7.75379 80.5955 7.92897 80.238 8.2509C79.8669 8.58606 79.6077 9.0223 79.4939 9.503H83.3375C83.3437 9.26631 83.297 9.03115 83.2006 8.81386C83.1042 8.59657 82.9605 8.40236 82.7794 8.24475C82.4503 7.9345 82.0105 7.7613 81.5529 7.76176ZM84.9803 10.8566H79.5349C79.6823 11.3117 79.9772 11.7078 80.3753 11.9852C80.7734 12.2626 81.253 12.4063 81.7421 12.3948C82.1424 12.3932 82.5408 12.3415 82.9276 12.241C83.2386 12.17 83.5409 12.0669 83.8294 11.9334L84.1447 11.7795V13.5485C83.403 13.9246 82.5744 14.1079 81.7389 14.0807C81.1785 14.1024 80.6196 14.0099 80.0979 13.8092C79.5762 13.6084 79.1031 13.3038 78.7087 12.9147C78.3307 12.5522 78.0323 12.1184 77.8318 11.6398C77.6312 11.1611 77.5326 10.6476 77.5421 10.1306C77.5298 9.60747 77.6251 9.08726 77.8222 8.60064C78.0193 8.11402 78.3143 7.67083 78.6898 7.29722C79.0451 6.92805 79.4754 6.6351 79.9531 6.43701C80.4308 6.23893 80.9455 6.14004 81.4646 6.14665C81.9425 6.13185 82.4184 6.21264 82.863 6.38406C83.3077 6.55548 83.7117 6.8139 84.0502 7.1434C84.3953 7.46262 84.6674 7.84929 84.8489 8.27816C85.0304 8.70702 85.1171 9.16842 85.1033 9.6322C85.1033 9.80756 85.1033 10.0014 85.0718 10.2075C85.0402 10.4136 85.0276 10.5767 85.0056 10.6905L84.9803 10.8566Z" fill="white"/>
<path d="M99.57 6.30048V13.9238H90.448V6.30048H92.3777V12.2441H94.052V6.30048H95.9313V12.2441H97.6403V6.30048H99.57Z" fill="white"/>
<path d="M103.716 6.30048V9.1646L106.106 6.30048H108.579L105.391 9.87833L108.85 13.9238H106.378L103.716 10.7336V13.9238H101.787V6.30048H103.716Z" fill="white"/>
<path d="M113.239 7.85404C112.948 7.84997 112.66 7.90629 112.393 8.01926C112.126 8.13223 111.887 8.29928 111.691 8.50931C111.274 8.93646 111.047 9.50711 111.06 10.0967C111.05 10.6895 111.276 11.263 111.691 11.6965C111.889 11.9034 112.128 12.0683 112.394 12.1811C112.66 12.2939 112.947 12.3521 113.237 12.3521C113.528 12.3521 113.815 12.2939 114.081 12.1811C114.347 12.0683 114.586 11.9034 114.784 11.6965C115.198 11.2629 115.425 10.6895 115.415 10.0967C115.427 9.50717 115.201 8.93665 114.784 8.50931C114.59 8.29793 114.352 8.12994 114.085 8.01684C113.818 7.90374 113.53 7.84821 113.239 7.85404ZM117.338 10.0967C117.34 10.6217 117.235 11.1417 117.029 11.6268C116.824 12.1119 116.522 12.5524 116.14 12.9229C115.759 13.2934 115.307 13.5864 114.809 13.7852C114.311 13.9839 113.777 14.0843 113.239 14.0807C112.702 14.0852 112.169 13.9852 111.672 13.7865C111.175 13.5877 110.724 13.2943 110.345 12.9233C109.965 12.5524 109.666 12.1113 109.463 11.6259C109.261 11.1406 109.159 10.6207 109.165 10.0967C109.155 9.57553 109.255 9.05789 109.459 8.57584C109.662 8.09378 109.965 7.65756 110.348 7.29413C110.726 6.92346 111.177 6.63065 111.674 6.43302C112.171 6.2354 112.703 6.13697 113.239 6.14356C113.776 6.13288 114.309 6.22943 114.807 6.4273C115.304 6.62516 115.754 6.92015 116.131 7.29413C116.518 7.65484 116.826 8.09014 117.032 8.57253C117.239 9.05493 117.341 9.57393 117.332 10.0967" fill="white"/>
<path d="M119.426 11.8564L119.984 6.30048H125.517V13.9238H123.619V7.98019H121.642L121.194 12.3702L119.649 14.4222L118.196 13.4869L119.426 11.8564Z" fill="white"/>
<path d="M134.926 6.30048H136.856V13.9238H134.926V6.30048ZM129.648 10.6567V12.2441H131.13C131.384 12.2517 131.632 12.1673 131.827 12.0072C131.914 11.9364 131.985 11.8475 132.033 11.747C132.081 11.6464 132.105 11.5367 132.104 11.4258C132.101 11.3212 132.073 11.2188 132.024 11.1261C131.974 11.0334 131.903 10.9529 131.817 10.8905C131.625 10.7336 131.381 10.6505 131.13 10.6567H129.648ZM127.756 13.9238V6.30048H129.648V8.97387H131.105C131.866 8.95031 132.61 9.19493 133.202 9.66298C133.47 9.87116 133.685 10.1375 133.829 10.4408C133.974 10.7441 134.044 11.076 134.034 11.4104C134.038 11.7562 133.967 12.099 133.826 12.4164C133.69 12.7201 133.489 12.9919 133.236 13.2131C132.967 13.4434 132.654 13.621 132.316 13.7361C131.933 13.8662 131.529 13.9297 131.124 13.9238H127.756Z" fill="white"/>
<path d="M142.264 13.9238V6.30048H144.193V10.9828L144.449 10.3921L147.176 6.30048H149.201V13.9238H147.271V9.22613L147.015 9.83218L144.275 13.9238H142.264Z" fill="white"/>
<path d="M157.288 11.7764V13.5177C156.578 13.9047 155.775 14.0981 154.961 14.0776C154.418 14.092 153.876 13.9973 153.371 13.7994C152.866 13.6015 152.408 13.3046 152.026 12.927C151.275 12.1726 150.855 11.1623 150.855 10.1106C150.855 9.05886 151.275 8.04856 152.026 7.29413C152.409 6.91745 152.867 6.62111 153.372 6.42326C153.877 6.22542 154.418 6.13024 154.961 6.14356C155.343 6.14236 155.724 6.18889 156.093 6.282C156.369 6.34629 156.637 6.44017 156.891 6.56195L157.147 6.70347V8.42932C156.522 8.05756 155.803 7.86362 155.072 7.86942C154.768 7.86166 154.467 7.91627 154.187 8.0297C153.906 8.14312 153.653 8.31282 153.445 8.52777C153.234 8.73679 153.068 8.98439 152.956 9.2563C152.844 9.52822 152.788 9.81908 152.792 10.1121C152.786 10.7102 153.02 11.2868 153.445 11.718C153.659 11.9336 153.918 12.103 154.203 12.2153C154.489 12.3276 154.796 12.3804 155.103 12.3702C155.456 12.3668 155.808 12.3172 156.147 12.2225C156.44 12.1506 156.726 12.0538 157.002 11.9333L157.288 11.7764Z" fill="white"/>
<path d="M160.971 6.30048V9.1646L163.364 6.30048H165.833L162.646 9.87833L166.108 13.9238H163.636L160.971 10.7336V13.9238H159.042V6.30048H160.971Z" fill="white"/>
<path d="M172.613 6.30046H174.687L171.544 15.5266L169.696 18L168.324 16.9909L169.743 14.9205L170.109 13.9238H169.311L167.158 8.15245L166.265 7.31259L167.319 6.03589L168.722 7.0634L170.604 12.2133H170.667L172.613 6.30046Z" fill="white"/>
<path d="M181.754 11.7764V13.5177C181.042 13.9047 180.238 14.0981 179.423 14.0776C178.88 14.0916 178.338 13.9968 177.834 13.7989C177.329 13.601 176.871 13.3043 176.488 12.927C175.739 12.1706 175.321 11.1588 175.325 10.1068C175.329 9.05488 175.753 8.04577 176.507 7.29413C176.889 6.91724 177.347 6.62073 177.851 6.42285C178.355 6.22498 178.896 6.12993 179.439 6.14356C179.821 6.14198 180.202 6.18851 180.571 6.282C180.847 6.34586 181.115 6.43976 181.369 6.56194L181.624 6.70346V8.42932C181.001 8.05766 180.283 7.8637 179.553 7.86941C179.247 7.85908 178.942 7.91214 178.659 8.0251C178.376 8.13805 178.121 8.30833 177.91 8.52468C177.698 8.73314 177.532 8.98058 177.419 9.25258C177.306 9.52458 177.25 9.81571 177.254 10.109C177.247 10.7077 177.483 11.2848 177.91 11.7149C178.125 11.9305 178.383 12.0999 178.669 12.2122C178.954 12.3245 179.261 12.3773 179.569 12.3671C179.922 12.3638 180.273 12.3141 180.612 12.2194C180.905 12.1475 181.191 12.0508 181.467 11.9303L181.754 11.7764Z" fill="white"/>
<path d="M189.391 11.7764V13.5177C188.68 13.9047 187.877 14.0981 187.064 14.0776C186.52 14.0916 185.979 13.9968 185.474 13.7989C184.969 13.601 184.511 13.3043 184.128 12.927C183.377 12.1726 182.957 11.1623 182.957 10.1106C182.957 9.05886 183.377 8.04856 184.128 7.29413C184.511 6.91745 184.969 6.62111 185.474 6.42326C185.979 6.22542 186.52 6.13024 187.064 6.14356C187.445 6.14236 187.826 6.18889 188.196 6.282C188.471 6.34587 188.739 6.43977 188.993 6.56195L189.249 6.70347V8.42932C188.624 8.05726 187.905 7.8633 187.174 7.86942C186.868 7.85928 186.564 7.91243 186.281 8.02538C185.997 8.13832 185.742 8.30849 185.531 8.52469C185.321 8.73371 185.154 8.98131 185.042 9.25322C184.93 9.52514 184.875 9.81601 184.878 10.109C184.872 10.7071 185.106 11.2837 185.531 11.7149C185.746 11.9305 186.004 12.0999 186.29 12.2122C186.575 12.3246 186.882 12.3773 187.19 12.3671C187.544 12.3638 187.896 12.3141 188.236 12.2194C188.528 12.1471 188.813 12.0504 189.088 11.9303L189.391 11.7764Z" fill="white"/>
<path d="M196.807 7.98019H194.511V13.9238H192.613V7.98019H190.33V6.30048H196.807V7.98019Z" fill="white"/>
<path d="M203.028 11.558C203.028 11.0904 202.618 10.8566 201.798 10.8566H200.127V12.2194H201.959C202.232 12.2338 202.503 12.1719 202.741 12.041C202.827 11.9938 202.9 11.9251 202.95 11.8419C203 11.7586 203.027 11.6639 203.028 11.5673M200.127 9.24765H201.735C202.005 9.26286 202.273 9.20084 202.508 9.06922C202.592 9.0237 202.662 8.95734 202.711 8.87684C202.76 8.79635 202.787 8.70458 202.788 8.61083C202.791 8.51919 202.769 8.42844 202.724 8.34789C202.679 8.26734 202.613 8.19989 202.533 8.15245C202.326 8.03332 202.088 7.97658 201.849 7.9894H200.127V9.24765ZM204.718 8.50317C204.719 8.75534 204.662 9.00449 204.551 9.23227C204.468 9.4179 204.35 9.58689 204.204 9.73064L204.027 9.88754C204.121 9.94356 204.21 10.0052 204.296 10.0721C204.466 10.2424 204.609 10.4363 204.721 10.6474C204.901 10.9558 204.993 11.305 204.989 11.6595C204.997 11.976 204.929 12.29 204.791 12.5763C204.652 12.8626 204.447 13.1134 204.191 13.3085C203.612 13.7399 202.895 13.9578 202.167 13.9238H198.245V6.30046H201.713C202.491 6.25603 203.263 6.45194 203.92 6.86036C204.184 7.04502 204.395 7.29151 204.535 7.57704C204.675 7.86256 204.739 8.17791 204.721 8.49394" fill="white"/>
</g>
<defs>
<clipPath id="clip0_30_455">
<rect width="205" height="18" fill="white"/>
</clipPath>
</defs>
</svg>
